<svg width="23" height="23" viewBox="0 0 23 23" fill="none" xmlns="http://www.w3.org/2000/svg">
<path d="M11.7589 18.4395L11.5005 18.283L11.2418 18.439L5.6645 21.8017L5.6636 21.8023C5.02356 22.19 4.23781 21.6195 4.40723 20.8904L5.8855 14.5418L5.95387 14.2482L5.72612 14.0507L0.793875 9.7733L0.793699 9.77315C0.225758 9.28108 0.535056 8.35423 1.27201 8.29556L1.27201 8.29557L1.27466 8.29534L7.76587 7.74386L8.0661 7.71835L8.18381 7.44097L10.7239 1.45533L10.7247 1.45339C11.0101 0.772698 11.9899 0.772698 12.2753 1.45339L12.276 1.45496L14.816 7.45405L14.9336 7.73178L15.2341 7.75731L21.7253 8.3088L21.728 8.30901C22.4649 8.36768 22.7742 9.29453 22.2063 9.7866L22.2061 9.78675L17.2739 14.0641L17.0461 14.2616L17.1145 14.5553L18.5928 20.9038C18.7622 21.633 17.9764 22.2035 17.3364 21.8157L17.3363 21.8156L11.7589 18.4395Z" fill="#30455D" stroke="#30455D"/>
</svg>
