<svg width="23" height="23" viewBox="0 0 23 23" fill="none" xmlns="http://www.w3.org/2000/svg">
<path d="M11.7589 18.8823L11.5005 18.7259L11.2418 18.8819L5.6645 22.2446L5.6636 22.2451C5.02356 22.6329 4.23781 22.0624 4.40723 21.3333L5.8855 14.9847L5.95387 14.6911L5.72612 14.4936L0.793875 10.2162L0.793699 10.216C0.225758 9.72395 0.535056 8.7971 1.27201 8.73843L1.27201 8.73844L1.27466 8.73821L7.76587 8.18673L8.06611 8.16122L8.18381 7.88384L10.7239 1.8982L10.7247 1.89626C11.0101 1.21557 11.9899 1.21557 12.2753 1.89626L12.276 1.89783L14.816 7.89692L14.9336 8.17465L15.2341 8.20018L21.7253 8.75167L21.728 8.75188C22.4649 8.81055 22.7742 9.7374 22.2063 10.2295L22.2061 10.2296L17.2739 14.507L17.0461 14.7045L17.1145 14.9981L18.5928 21.3467C18.7622 22.0758 17.9764 22.6463 17.3364 22.2586L17.3363 22.2585L11.7589 18.8823Z" fill="url(#paint0_linear_234_2325)" stroke="#30455D"/>
<defs>
<linearGradient id="paint0_linear_234_2325" x1="7.36438e-08" y1="10.3857" x2="23" y2="10.3857" gradientUnits="userSpaceOnUse">
<stop offset="0.55" stop-color="#30455D"/>
<stop offset="0.5501" stop-color="#30455D" stop-opacity="0"/>
<stop offset="0.805" stop-color="#30455D" stop-opacity="0"/>
</linearGradient>
</defs>
</svg>
