<svg width="30" height="30" viewBox="0 0 30 30" fill="none" xmlns="http://www.w3.org/2000/svg">
<circle cx="15" cy="15" r="15" fill="white"/>
<path d="M17.325 6C16.0984 6 14.922 6.48728 14.0546 7.35463C13.1873 8.22199 12.7 9.39837 12.7 10.625V13.2H10.225C10.101 13.2 10 13.3 10 13.425V16.825C10 16.949 10.1 17.05 10.225 17.05H12.7V24.025C12.7 24.149 12.8 24.25 12.925 24.25H16.325C16.449 24.25 16.55 24.15 16.55 24.025V17.05H19.047C19.15 17.05 19.24 16.98 19.265 16.88L20.115 13.48C20.1234 13.4468 20.1241 13.4122 20.117 13.3787C20.11 13.3452 20.0954 13.3138 20.0744 13.2868C20.0533 13.2598 20.0264 13.2379 19.9957 13.2229C19.965 13.2079 19.9312 13.2 19.897 13.2H16.55V10.625C16.55 10.5232 16.57 10.4224 16.609 10.3284C16.6479 10.2344 16.705 10.149 16.777 10.077C16.849 10.005 16.9344 9.94794 17.0284 9.90899C17.1224 9.87005 17.2232 9.85 17.325 9.85H19.925C20.049 9.85 20.15 9.75 20.15 9.625V6.225C20.15 6.101 20.05 6 19.925 6H17.325Z" fill="#011C2A"/>
</svg>
