<svg width="327" height="69" viewBox="0 0 327 69" fill="none" xmlns="http://www.w3.org/2000/svg">
<mask id="mask0_133_1430" style="mask-type:alpha" maskUnits="userSpaceOnUse" x="0" y="0" width="327" height="69">
<path d="M206.364 5.18356C207.323 5.18604 208.282 5.18458 209.241 5.18206C214.544 5.17035 219.819 5.35026 225.112 5.67721C225.112 5.82132 225.112 5.96543 225.112 6.11392C225.687 6.11392 226.262 6.11392 226.854 6.11392C226.854 6.25803 226.854 6.40214 226.854 6.55062C227.114 6.54612 227.375 6.54162 227.643 6.53698C228.417 6.5356 229.141 6.61637 229.902 6.76898C229.902 6.91309 229.902 7.05721 229.902 7.20569C230.62 7.27774 231.339 7.3498 232.079 7.42404C232.079 7.56816 232.079 7.71227 232.079 7.86075C232.438 7.86075 232.797 7.86075 233.168 7.86075C233.168 8.00486 233.168 8.14898 233.168 8.29746C234.03 8.40555 234.03 8.40555 234.909 8.51581C234.909 8.65993 234.909 8.80404 234.909 8.95252C235.771 9.06061 235.771 9.06061 236.651 9.17088C236.651 9.31499 236.651 9.45911 236.651 9.60759C236.866 9.60759 237.082 9.60759 237.304 9.60759C237.304 9.7517 237.304 9.89581 237.304 10.0443C237.47 10.0668 237.636 10.0893 237.807 10.1125C238.433 10.2729 238.66 10.4093 239.046 10.9177C239.046 11.0618 239.046 11.2059 239.046 11.3544C239.261 11.3544 239.477 11.3544 239.699 11.3544C239.699 11.4985 239.699 11.6427 239.699 11.7911C239.914 11.8632 240.13 11.9352 240.352 12.0095C240.352 12.2257 240.352 12.4418 240.352 12.6645C240.496 12.6645 240.639 12.6645 240.787 12.6645C240.787 12.8087 240.787 12.9528 240.787 13.1013C240.931 13.1013 241.075 13.1013 241.223 13.1013C241.295 13.6777 241.366 14.2542 241.44 14.8481C241.584 14.8481 241.728 14.8481 241.876 14.8481C241.876 15.9289 241.876 17.0098 241.876 18.1234C241.732 18.1234 241.589 18.1234 241.44 18.1234C241.447 18.5085 241.447 18.5085 241.454 18.9013C241.456 19.7554 241.363 20.557 241.223 21.3987C241.079 21.3987 240.935 21.3987 240.787 21.3987C240.787 21.8311 240.787 22.2634 240.787 22.7089C240.644 22.7089 240.5 22.7089 240.352 22.7089C240.344 22.833 240.336 22.9571 240.327 23.085C240.228 24.2558 239.996 25.1472 239.481 26.2025C239.337 26.2025 239.194 26.2025 239.046 26.2025C239.046 26.4187 239.046 26.6349 239.046 26.8576C238.902 26.8576 238.758 26.8576 238.61 26.8576C238.538 27.362 238.467 27.8664 238.393 28.3861C238.249 28.3861 238.105 28.3861 237.957 28.3861C237.885 28.6743 237.813 28.9625 237.739 29.2595C237.596 29.2595 237.452 29.2595 237.304 29.2595C237.304 29.5477 237.304 29.8359 237.304 30.1329C237.16 30.1329 237.017 30.1329 236.869 30.1329C236.797 30.4211 236.725 30.7094 236.651 31.0063C236.507 31.0063 236.364 31.0063 236.215 31.0063C236.144 31.3666 236.072 31.7269 235.998 32.0981C235.854 32.0981 235.71 32.0981 235.562 32.0981C235.562 32.2422 235.562 32.3863 235.562 32.5348C235.419 32.6069 235.275 32.6789 235.127 32.7532C235.055 32.9693 234.983 33.1855 234.909 33.4082C234.766 33.4082 234.622 33.4082 234.474 33.4082C234.402 33.6964 234.33 33.9847 234.256 34.2816C233.969 34.3537 233.681 34.4258 233.385 34.5C233.365 34.6891 233.365 34.6891 233.344 34.8821C233.095 35.5753 232.676 35.8382 232.079 36.2468C231.935 36.2468 231.792 36.2468 231.644 36.2468C231.623 36.436 231.623 36.436 231.603 36.6289C231.353 37.3221 230.934 37.585 230.337 37.9937C230.194 37.9937 230.05 37.9937 229.902 37.9937C229.83 38.2819 229.758 38.5701 229.684 38.8671C229.325 38.9391 228.966 39.0112 228.596 39.0854C228.596 39.2295 228.596 39.3737 228.596 39.5221C228.236 39.5942 227.877 39.6663 227.507 39.7405C227.435 40.0287 227.363 40.317 227.289 40.6139C227.15 40.6409 227.011 40.668 226.868 40.6958C226.719 40.7408 226.571 40.7859 226.419 40.8323C226.347 40.9764 226.275 41.1205 226.201 41.269C225.643 41.4055 225.643 41.4055 225.112 41.4873C225.112 41.6314 225.112 41.7756 225.112 41.924C224.897 41.924 224.681 41.924 224.459 41.924C224.459 42.0682 224.459 42.2123 224.459 42.3608C223.956 42.4328 223.453 42.5049 222.935 42.5791C222.935 42.7232 222.935 42.8673 222.935 43.0158C222.504 43.0879 222.073 43.1599 221.629 43.2342C221.629 43.3783 221.629 43.5224 221.629 43.6709C221.27 43.6709 220.91 43.6709 220.54 43.6709C220.54 43.815 220.54 43.9591 220.54 44.1076C220.109 44.1796 219.678 44.2517 219.234 44.3259C219.234 44.9024 219.234 45.4789 219.234 46.0728C219.09 46.0728 218.947 46.0728 218.799 46.0728C218.799 46.2169 218.799 46.361 218.799 46.5095C218.368 46.5815 217.937 46.6536 217.492 46.7278C217.492 46.872 217.492 47.0161 217.492 47.1646C216.99 47.1646 216.487 47.1646 215.968 47.1646C215.968 47.3087 215.968 47.4528 215.968 47.6013C210.66 48.3788 205.173 48.2398 199.858 47.6013C199.858 47.4571 199.858 47.313 199.858 47.1646C199.427 47.1646 198.996 47.1646 198.552 47.1646C198.552 47.0204 198.552 46.8763 198.552 46.7278C198.195 46.7346 198.195 46.7346 197.831 46.7415C197.028 46.7278 197.028 46.7278 196.375 46.5095C196.375 46.3654 196.375 46.2213 196.375 46.0728C196.015 46.0728 195.656 46.0728 195.286 46.0728C195.178 45.1 195.178 45.1 195.068 44.1076C194.902 44.0761 194.736 44.0445 194.565 44.0121C193.98 43.8892 193.98 43.8892 193.327 43.6709C193.327 43.5268 193.327 43.3827 193.327 43.2342C192.824 43.1621 192.321 43.0901 191.803 43.0158C191.803 42.8717 191.803 42.7276 191.803 42.5791C191.372 42.507 190.941 42.435 190.496 42.3608C190.496 42.2166 190.496 42.0725 190.496 41.924C190.353 41.924 190.209 41.924 190.061 41.924C190.061 41.7799 190.061 41.6358 190.061 41.4873C189.63 41.4153 189.199 41.3432 188.755 41.269C188.755 41.1249 188.755 40.9808 188.755 40.8323C188.247 40.5689 187.776 40.3594 187.231 40.1772C186.94 39.8861 186.65 39.5949 186.36 39.3038C186.203 39.2317 186.046 39.1597 185.884 39.0854C185.753 39.0134 185.623 38.9413 185.489 38.8671C185.41 38.5776 185.337 38.2864 185.271 37.9937C185.056 37.9216 184.84 37.8495 184.618 37.7753C184.618 37.6312 184.618 37.4871 184.618 37.3386C184.493 37.3251 184.367 37.3116 184.237 37.2977C183.546 37.0473 183.284 36.6269 182.877 36.0285C182.877 35.8844 182.877 35.7402 182.877 35.5918C182.589 35.5197 182.302 35.4477 182.006 35.3734C181.972 35.164 181.972 35.164 181.938 34.9503C181.888 34.8017 181.839 34.6531 181.788 34.5C181.572 34.4279 181.357 34.3559 181.135 34.2816C181.135 34.1375 181.135 33.9934 181.135 33.8449C180.996 33.7864 180.856 33.7278 180.713 33.6675C180.264 33.4082 180.264 33.4082 180.046 32.7532C179.934 32.6451 179.822 32.537 179.706 32.4256C179.393 32.0981 179.393 32.0981 179.393 31.443C179.25 31.443 179.106 31.443 178.958 31.443C178.958 31.2989 178.958 31.1548 178.958 31.0063C178.814 31.0063 178.67 31.0063 178.522 31.0063C178.451 30.7902 178.379 30.574 178.305 30.3513C178.161 30.2792 178.017 30.2071 177.869 30.1329C177.797 29.8418 177.724 29.5506 177.652 29.2595C177.508 29.1874 177.364 29.1154 177.216 29.0411C177.216 28.825 177.216 28.6088 177.216 28.3861C177.072 28.3861 176.929 28.3861 176.781 28.3861C176.709 27.8817 176.637 27.3773 176.563 26.8576C176.419 26.8576 176.276 26.8576 176.128 26.8576C176.056 26.4252 175.984 25.9929 175.91 25.5475C175.766 25.5475 175.622 25.5475 175.474 25.5475C175.474 25.3313 175.474 25.1151 175.474 24.8924C175.331 24.8924 175.187 24.8924 175.039 24.8924C174.967 24.388 174.895 23.8836 174.821 23.3639C174.678 23.3639 174.534 23.3639 174.386 23.3639C174.314 22.7154 174.242 22.0669 174.168 21.3987C174.024 21.3987 173.881 21.3987 173.733 21.3987C173.733 21.0384 173.733 20.6782 173.733 20.307C173.589 20.307 173.445 20.307 173.297 20.307C173.225 19.5143 173.154 18.7217 173.08 17.9051C172.936 17.9051 172.792 17.9051 172.644 17.9051C172.305 15.6484 172.234 13.848 173.297 11.7911C173.441 11.7911 173.585 11.7911 173.733 11.7911C173.733 11.647 173.733 11.5029 173.733 11.3544C173.876 11.3544 174.02 11.3544 174.168 11.3544C174.24 11.1383 174.312 10.9221 174.386 10.6994C174.53 10.6994 174.673 10.6994 174.821 10.6994C174.893 10.4832 174.965 10.267 175.039 10.0443C175.326 10.0443 175.614 10.0443 175.91 10.0443C175.982 9.75607 176.054 9.46784 176.128 9.17088C176.882 9.06279 176.882 9.06279 177.652 8.95252C177.652 8.80841 177.652 8.6643 177.652 8.51581C178.226 8.44376 178.801 8.3717 179.393 8.29746C179.393 8.15335 179.393 8.00923 179.393 7.86075C180.874 7.44496 182.206 7.11649 183.747 7.20569C183.747 7.06157 183.747 6.91746 183.747 6.76898C185.277 6.58256 186.779 6.52418 188.319 6.55062C188.319 6.40651 188.319 6.2624 188.319 6.11392C189.253 6.11392 190.187 6.11392 191.15 6.11392C191.15 5.9698 191.15 5.82569 191.15 5.67721C196.224 5.30667 201.276 5.17027 206.364 5.18356Z" fill="#7AADE9"/>
<path d="M279.581 12.2585C279.975 12.6645 279.975 12.6645 279.975 13.538C279.723 13.9833 279.723 13.9833 279.37 14.454C279.241 14.6275 279.112 14.8009 278.979 14.9796C278.841 15.1614 278.703 15.3432 278.56 15.5304C278.421 15.7157 278.283 15.901 278.14 16.0919C277.179 17.3709 276.199 18.633 275.185 19.8702C275.061 19.8141 274.936 19.758 274.807 19.7002C271.5 18.185 271.5 18.185 268.001 17.25C267.774 17.2109 267.548 17.1717 267.314 17.1314C263.527 16.6798 259.824 16.8194 256.68 19.2152C254.595 21.0729 253.351 23.9572 253.161 26.7229C252.996 30.4269 253.404 33.8258 255.741 36.8609C257.537 38.7897 260.108 39.8594 262.706 40.0032C265.059 40.0463 267.277 39.8371 269.525 39.0854C269.597 37.0678 269.669 35.0502 269.743 32.9715C267.659 32.9715 265.576 32.9715 263.429 32.9715C263.429 30.2333 263.429 27.4952 263.429 24.674C268.817 24.674 274.206 24.674 279.757 24.674C279.845 29.6806 279.845 29.6806 279.864 31.8179C279.877 33.2753 279.892 34.7324 279.922 36.1896C279.945 37.3647 279.958 38.5396 279.964 39.7149C279.968 40.1629 279.976 40.6108 279.988 41.0586C280.076 44.5717 280.076 44.5717 279.283 45.5899C278.725 45.9886 278.216 46.2585 277.58 46.5095C277.229 46.71 277.229 46.71 276.871 46.9146C273.03 48.7044 268.936 49.2103 264.739 49.1987C264.22 49.198 263.702 49.2031 263.184 49.2086C257.246 49.2336 251.793 47.3456 247.456 43.1753C244.596 40.1823 242.797 36.2095 242.311 32.0981C242.287 31.9016 242.264 31.7051 242.239 31.5027C241.618 25.6078 242.789 19.7023 246.435 14.9479C254.263 5.57764 270.08 5.40508 279.581 12.2585Z" fill="#79ACE9"/>
<path d="M83.165 8.73419C93.0795 8.73419 102.994 8.73419 113.209 8.73419C113.209 11.7606 113.209 14.787 113.209 17.9051C106.743 17.9051 100.277 17.9051 93.6151 17.9051C93.6151 19.9227 93.6151 21.9403 93.6151 24.019C99.65 24.019 105.685 24.019 111.903 24.019C111.903 26.8292 111.903 29.6394 111.903 32.5348C105.868 32.5348 99.8329 32.5348 93.6151 32.5348C93.6151 34.6965 93.6151 36.8582 93.6151 39.0855C100.225 39.0855 106.834 39.0855 113.644 39.0855C113.644 42.0398 113.644 44.9941 113.644 48.038C103.586 48.038 93.528 48.038 83.165 48.038C83.165 35.0677 83.165 22.0975 83.165 8.73419Z" fill="#79ACE9"/>
<path d="M44.1953 8.73415C47.6438 8.73415 51.0924 8.73415 54.6454 8.73415C54.7172 13.3458 54.7891 17.9574 54.8631 22.7088C57.1759 20.4317 57.1759 20.4317 59.325 18.0649C59.9523 17.3408 60.6394 16.6749 61.3195 16.0013C61.4732 15.8479 61.6269 15.6946 61.7853 15.5366C62.4348 14.8887 63.0856 14.2421 63.7364 13.5954C64.2148 13.1195 64.6925 12.643 65.1703 12.1664C65.3148 12.0233 65.4593 11.8802 65.6082 11.7327C65.747 11.5942 65.8858 11.4557 66.0288 11.313C66.1659 11.1781 66.303 11.0432 66.4442 10.9042C66.8495 10.4879 66.8495 10.4879 67.1739 9.99361C67.7117 9.23657 68.0747 8.80142 68.9979 8.58459C69.7937 8.53183 70.5702 8.53769 71.3674 8.56356C71.658 8.56682 71.9487 8.56931 72.2394 8.57105C73.0002 8.57768 73.7605 8.59481 74.5211 8.6142C75.2989 8.63216 76.0768 8.64007 76.8547 8.64885C78.378 8.66752 79.9008 8.69729 81.4237 8.73415C81.2194 8.97425 81.0149 9.21422 80.8104 9.45414C80.6396 9.65462 80.6396 9.65462 80.4654 9.85914C77.8035 12.9459 74.8493 15.7816 71.962 18.6525C71.8083 18.8058 71.6546 18.959 71.4962 19.1168C71.2075 19.4046 70.9184 19.6919 70.6287 19.9787C69.8046 20.8007 69.0251 21.6489 68.2686 22.5339C67.7499 23.1288 67.195 23.6838 66.633 24.2373C66.5257 24.344 66.4183 24.4507 66.3077 24.5606C66.0493 24.8173 65.7902 25.0733 65.5309 25.3291C65.8918 26.1281 66.3808 26.819 66.8916 27.5263C66.9862 27.6582 67.0808 27.7902 67.1784 27.9262C68.5009 29.7645 69.8475 31.5854 71.1913 33.4082C72.6981 35.4527 74.2014 37.4991 75.6816 39.5631C76.5857 40.8233 77.5002 42.0748 78.4302 43.316C78.5369 43.4585 78.6437 43.6011 78.7536 43.7479C79.26 44.4226 79.7687 45.0953 80.2807 45.7657C80.373 45.8872 80.4652 46.0087 80.5603 46.1339C80.8076 46.4593 81.056 46.7838 81.3046 47.1082C81.6414 47.6012 81.6414 47.6012 81.6414 48.0379C80.0613 48.1092 78.4816 48.1633 76.9002 48.1963C76.1656 48.2122 75.4321 48.2337 74.6981 48.2686C69.9655 48.4771 69.9655 48.4771 68.7683 47.7604C68.0425 47.0758 67.6202 46.2729 67.229 45.3635C66.9839 44.8252 66.6458 44.385 66.2826 43.9208C66.1104 43.6868 66.1104 43.6868 65.9347 43.4481C65.8194 43.292 65.7041 43.1358 65.5853 42.9749C65.4579 42.8018 65.3305 42.6287 65.1993 42.4504C64.5425 41.5581 63.8846 40.6666 63.2262 39.7755C61.5685 37.5288 59.9431 35.2622 58.3464 32.9715C57.9904 33.2678 57.6361 33.5661 57.2885 33.8723C56.9702 34.1518 56.6456 34.4242 56.3159 34.69C55.3166 35.565 54.7455 36.1994 54.6207 37.5523C54.6119 38.0408 54.6136 38.5296 54.6241 39.018C54.6221 39.277 54.62 39.5359 54.6179 39.8027C54.6134 40.6238 54.6224 41.4441 54.6318 42.2652C54.6311 42.8243 54.6296 43.3834 54.6271 43.9425C54.6214 45.3082 54.6338 46.6719 54.6454 48.0379C51.1969 48.0379 47.7483 48.0379 44.1953 48.0379C44.1953 35.0677 44.1953 22.0974 44.1953 8.73415Z" fill="#79ACE9"/>
<path d="M323.952 11.5728C323.65 12.4172 323.258 13.0917 322.743 13.8237C322.591 14.0409 322.439 14.258 322.283 14.4818C322.124 14.7062 321.966 14.9307 321.802 15.162C321.49 15.6074 321.178 16.053 320.865 16.4986C320.72 16.7054 320.575 16.9122 320.425 17.1254C319.994 17.7431 319.575 18.3664 319.163 18.9968C319.041 18.9597 318.919 18.9225 318.794 18.8842C318.192 18.7017 317.589 18.5218 316.986 18.3418C316.744 18.2683 316.503 18.1948 316.254 18.1192C313.773 17.3808 311.49 16.9937 308.903 16.9634C308.603 16.9576 308.603 16.9576 308.297 16.9517C306.62 16.9535 305.009 17.1406 303.692 18.2462C303.13 18.9554 303.011 19.269 303.079 20.1568C303.176 20.8922 303.264 21.1716 303.705 21.7945C305.405 23.0373 307.357 23.4384 309.379 23.8962C320.774 26.5565 320.774 26.5565 323.696 31.2008C325.369 34.3697 325.403 37.6416 324.388 41.0506C323.261 44.0216 321.332 46.052 318.495 47.4152C315.089 48.9201 311.609 49.2144 307.937 49.198C307.661 49.1974 307.661 49.1974 307.38 49.1968C304.734 49.1871 302.146 49.1372 299.569 48.4747C299.35 48.4202 299.35 48.4202 299.127 48.3647C296.429 47.6681 293.417 46.6176 291.296 44.7627C291.643 43.7284 292.213 42.9163 292.833 42.0332C292.939 41.8814 293.044 41.7295 293.153 41.5731C293.37 41.2607 293.587 40.9487 293.805 40.637C294.204 40.0658 294.599 39.4923 294.994 38.9187C295.357 38.3916 295.721 37.8651 296.086 37.3386C296.912 37.509 297.651 37.8415 298.426 38.1711C302.691 39.9303 307.947 40.864 312.414 39.3038C313.209 38.9569 313.644 38.5409 314.142 37.8163C314.43 36.9489 314.41 36.4689 314.155 35.5918C312.765 33.7182 310.313 33.406 308.168 32.9852C303.393 31.9955 297.536 30.7385 294.344 26.6392C292.384 23.5448 291.914 20.4655 292.616 16.8815C293.366 14.0479 294.87 11.7898 297.337 10.2217C304.751 6.05036 316.926 6.5949 323.952 11.5728Z" fill="#79ACE9"/>
<path d="M0.871094 8.73417C4.60699 8.73417 8.34289 8.73417 12.192 8.73417C13.0314 11.0192 13.0314 11.0192 13.3233 11.8139C13.7664 13.0202 14.2095 14.2265 14.6527 15.4328C14.9165 16.1508 15.1803 16.8689 15.444 17.5869C15.4977 17.733 15.5514 17.8792 15.6067 18.0297C16.3747 20.1204 17.1423 22.2113 17.9096 24.3022C18.2241 25.1592 18.5387 26.0162 18.8533 26.8731C19.1054 27.5601 19.3576 28.2472 19.6096 28.9342C19.8909 29.7012 20.1724 30.468 20.4539 31.2349C20.5372 31.462 20.6204 31.6892 20.7062 31.9232C20.7831 32.1325 20.86 32.3419 20.9392 32.5576C21.0057 32.7388 21.0722 32.9199 21.1406 33.1065C21.3434 33.6469 21.5556 34.183 21.7712 34.7183C22.9483 31.7312 24.0627 28.7223 25.1657 25.7069C25.6162 24.4755 26.0679 23.2446 26.5196 22.0136C26.672 21.598 26.8245 21.1824 26.977 20.7667C27.8662 18.3428 28.7575 15.9196 29.6534 13.4981C29.8047 13.0891 29.9557 12.6801 30.1064 12.271C30.313 11.7105 30.5204 11.1503 30.7279 10.5902C30.7885 10.4254 30.849 10.2607 30.9114 10.091C31.3256 8.9775 31.3256 8.9775 31.5682 8.73417C31.9157 8.71379 32.264 8.70852 32.6121 8.70938C32.8344 8.70939 33.0567 8.70941 33.2857 8.70943C33.5274 8.71055 33.7692 8.71168 34.0182 8.71284C34.3875 8.71331 34.3875 8.71331 34.7641 8.71378C35.5539 8.715 36.3436 8.71775 37.1334 8.72052C37.6673 8.72161 38.2012 8.72261 38.7351 8.7235C40.0472 8.72592 41.3593 8.72958 42.6714 8.73417C42.5376 9.81199 42.2096 10.7548 41.8005 11.7527C41.7336 11.9191 41.6668 12.0854 41.5979 12.2567C41.4526 12.6174 41.3068 12.9779 41.1605 13.3382C40.8436 14.1185 40.5296 14.9 40.2155 15.6814C40.0502 16.0924 39.8848 16.5034 39.7192 16.9144C38.8461 19.0825 37.9889 21.257 37.1334 23.4321C36.9786 23.8253 36.8238 24.2184 36.669 24.6115C36.3577 25.4021 36.0465 26.1928 35.7354 26.9835C35.0406 28.7488 34.3447 30.5136 33.6489 32.2784C33.268 33.2447 32.8871 34.211 32.5062 35.1772C32.4305 35.3692 32.3549 35.5611 32.2769 35.7589C31.7814 37.016 31.2859 38.2731 30.7905 39.5303C30.4475 40.4006 30.1044 41.2709 29.7614 42.1412C29.5975 42.557 29.4337 42.9729 29.2698 43.3887C29.0429 43.9644 28.816 44.5401 28.5891 45.1158C28.5222 45.2857 28.4552 45.4556 28.3862 45.6306C28.2928 45.8676 28.2928 45.8676 28.1975 46.1093C28.1439 46.2454 28.0903 46.3815 28.0351 46.5216C27.8349 47.0275 27.6332 47.5327 27.4317 48.038C23.6958 48.038 19.9599 48.038 16.1108 48.038C15.783 47.1823 15.4552 46.3266 15.1175 45.445C13.7871 41.9884 12.4258 38.5442 11.0626 35.1005C11.0084 34.9633 10.9541 34.8262 10.8981 34.6849C10.4053 33.4398 9.91231 32.1948 9.41926 30.9498C8.31618 28.164 7.21663 25.3768 6.11935 22.5887C5.97385 22.219 5.82834 21.8494 5.68282 21.4798C5.61129 21.2981 5.53976 21.1164 5.46606 20.9292C4.98347 19.7042 4.49854 18.4803 4.01246 17.2567C3.66534 16.3827 3.31889 15.5085 2.97249 14.6343C2.80689 14.2169 2.64097 13.7996 2.4747 13.3825C2.24548 12.8075 2.0174 12.232 1.78956 11.6564C1.72149 11.4865 1.65342 11.3166 1.58329 11.1415C1.521 10.9835 1.45871 10.8256 1.39453 10.6628C1.34043 10.5267 1.28633 10.3907 1.23059 10.2505C1.06607 9.75786 0.972682 9.24361 0.871094 8.73417Z" fill="#79ACE9"/>
<path d="M148.914 8.73419C152.363 8.73419 155.811 8.73419 159.364 8.73419C159.364 18.7501 159.364 28.766 159.364 39.0855C165.543 39.0855 171.721 39.0855 178.087 39.0855C178.087 42.0398 178.087 44.9941 178.087 48.038C168.46 48.038 158.833 48.038 148.914 48.038C148.914 35.0677 148.914 22.0975 148.914 8.73419Z" fill="#79ACE9"/>
<path d="M116.91 8.73419C120.359 8.73419 123.807 8.73419 127.36 8.73419C127.36 18.7501 127.36 28.766 127.36 39.0855C133.539 39.0855 139.717 39.0855 146.083 39.0855C146.083 42.0398 146.083 44.9941 146.083 48.038C136.456 48.038 126.829 48.038 116.91 48.038C116.91 35.0677 116.91 22.0975 116.91 8.73419Z" fill="#7AACE9"/>
<path d="M202.307 10.6721C202.582 10.676 202.857 10.68 203.14 10.684C203.35 10.6891 203.56 10.6942 203.776 10.6994C203.776 10.8435 203.776 10.9876 203.776 11.1361C204.136 11.2082 204.495 11.2802 204.865 11.3544C204.865 11.4986 204.865 11.6427 204.865 11.7912C205.655 11.7912 206.446 11.7912 207.26 11.7912C207.26 12.4397 207.26 13.0882 207.26 13.7563C207.404 13.7563 207.547 13.7563 207.695 13.7563C207.767 14.0446 207.839 14.3328 207.913 14.6298C208.272 14.7018 208.631 14.7739 209.002 14.8481C209.002 14.9922 209.002 15.1363 209.002 15.2848C209.217 15.2848 209.433 15.2848 209.655 15.2848C209.655 15.4289 209.655 15.5731 209.655 15.7215C210.948 15.7215 212.241 15.7215 213.573 15.7215C213.645 15.3613 213.717 15.001 213.791 14.6298C213.935 14.6298 214.078 14.6298 214.227 14.6298C214.227 14.1254 214.227 13.621 214.227 13.1013C214.011 13.0292 213.795 12.9572 213.573 12.8829C213.573 12.7388 213.573 12.5947 213.573 12.4462C213.358 12.3381 213.358 12.3381 213.138 12.2279C215.344 12.203 217.546 12.2271 219.751 12.3097C220.075 12.3199 220.075 12.3199 220.405 12.3302C220.609 12.3386 220.812 12.3471 221.021 12.3558C221.202 12.3627 221.382 12.3695 221.568 12.3766C222.102 12.4515 222.47 12.6156 222.935 12.8829C222.935 12.7388 222.935 12.5947 222.935 12.4462C224.549 11.9068 226.499 12.1849 228.16 12.4462C228.16 12.5903 228.16 12.7344 228.16 12.8829C228.375 12.955 228.591 13.027 228.813 13.1013C228.813 13.2454 228.813 13.3895 228.813 13.538C228.957 13.538 229.1 13.538 229.249 13.538C229.32 13.8983 229.392 14.2586 229.466 14.6298C230.185 14.7018 230.903 14.7739 231.643 14.8481C231.643 14.9922 231.643 15.1363 231.643 15.2848C231.852 15.3321 231.852 15.3321 232.065 15.3804C232.514 15.5032 232.514 15.5032 232.732 15.7215C233.097 15.8074 233.465 15.8833 233.834 15.9535C234.034 15.9921 234.234 16.0307 234.44 16.0704C234.595 16.0994 234.75 16.1284 234.909 16.1582C234.981 16.4465 235.053 16.7347 235.127 17.0317C235.27 17.0317 235.414 17.0317 235.562 17.0317C235.634 17.3919 235.706 17.7522 235.78 18.1234C235.995 18.1955 236.211 18.2676 236.433 18.3418C236.433 18.4859 236.433 18.63 236.433 18.7785C236.577 18.7785 236.72 18.7785 236.868 18.7785C236.868 19.2108 236.868 19.6432 236.868 20.0886C236.653 20.0886 236.437 20.0886 236.215 20.0886C236.215 20.2327 236.215 20.3769 236.215 20.5253C235.995 20.5833 235.774 20.6413 235.547 20.701C235.253 20.7789 234.958 20.8568 234.664 20.9347C234.519 20.9727 234.374 21.0107 234.225 21.0499C233.55 21.2291 232.89 21.4189 232.228 21.6444C231.634 21.8386 231.175 21.8721 230.555 21.8355C230.555 21.9796 230.555 22.1237 230.555 22.2722C230.052 22.2722 229.549 22.2722 229.031 22.2722C229.031 21.5516 229.031 20.831 229.031 20.0886C229.031 20.2327 229.031 20.3769 229.031 20.5253C229.04 20.7325 229.049 20.9397 229.058 21.1531C229.03 21.8512 228.987 22.144 228.595 22.7089C225.788 23.8608 222.033 24.0106 219.034 24.1913C218.568 24.2115 218.568 24.2115 218.145 24.4557C217.675 24.4769 217.205 24.4837 216.734 24.484C216.589 24.4844 216.445 24.4847 216.295 24.4851C215.815 24.4861 215.335 24.4855 214.855 24.4847C214.521 24.4849 214.188 24.4851 213.854 24.4853C213.154 24.4857 212.454 24.4852 211.754 24.4842C210.858 24.4829 209.962 24.4837 209.066 24.485C208.377 24.4858 207.687 24.4855 206.998 24.4849C206.668 24.4848 206.337 24.485 206.007 24.4855C205.544 24.486 205.082 24.4852 204.619 24.484C204.356 24.4838 204.093 24.4836 203.822 24.4834C203.197 24.4586 202.642 24.3766 202.035 24.2374C201.74 24.2124 201.444 24.1943 201.148 24.1836C200.986 24.1767 200.823 24.1698 200.656 24.1627C200.487 24.1558 200.318 24.1489 200.143 24.1418C198.881 24.0821 197.686 23.9748 196.453 23.6847C195.837 23.562 195.231 23.5169 194.605 23.4731C193.549 23.3978 192.601 23.2213 191.585 22.9272C191.585 22.7831 191.585 22.639 191.585 22.4905C191.299 22.4798 191.013 22.4691 190.718 22.4581C190.34 22.4417 189.962 22.4252 189.585 22.4086C189.302 22.3985 189.302 22.3985 189.014 22.3882C188.023 22.3425 187.276 22.2355 186.36 21.8355C185.822 21.7502 185.282 21.6783 184.74 21.6171C183.697 21.4989 182.773 21.3287 181.788 20.962C181.788 20.8179 181.788 20.6738 181.788 20.5253C181.579 20.5456 181.579 20.5456 181.366 20.5663C180.442 20.5095 179.577 20.2711 178.74 19.8703C178.596 19.6541 178.452 19.4379 178.304 19.2152C177.858 18.9549 177.858 18.9549 177.434 18.7785C177.556 17.9168 177.781 17.2948 178.304 16.595C178.594 16.5176 178.884 16.4453 179.175 16.3766C179.355 16.192 179.534 16.0073 179.72 15.8171C180.264 15.2848 180.264 15.2848 181.135 15.2848C181.135 15.1407 181.135 14.9966 181.135 14.8481C181.494 14.7761 181.853 14.704 182.223 14.6298C182.295 14.4136 182.367 14.1974 182.441 13.9747C182.585 13.9747 182.728 13.9747 182.876 13.9747C182.876 13.8306 182.876 13.6865 182.876 13.538C183.02 13.538 183.164 13.538 183.312 13.538C183.312 13.3939 183.312 13.2498 183.312 13.1013C184.903 12.3352 186.358 12.3799 188.101 12.4462C188.101 12.5903 188.101 12.7344 188.101 12.8829C190.113 12.8829 192.125 12.8829 194.197 12.8829C194.197 12.7388 194.197 12.5947 194.197 12.4462C196.891 12.3381 196.891 12.3381 199.64 12.2279C199.712 11.8676 199.784 11.5073 199.858 11.1361C200.583 10.5463 201.41 10.6554 202.307 10.6721Z" fill="#F9F8F9"/>
<path d="M203.944 5.85887C204.225 5.85753 204.225 5.85753 204.511 5.85616C205.124 5.85406 205.736 5.85408 206.348 5.85461C206.557 5.85452 206.767 5.85443 206.982 5.85435C210.535 5.85609 214.05 6.01471 217.593 6.27905C218.828 6.36441 220.064 6.4183 221.302 6.46873C221.514 6.47744 221.726 6.48614 221.945 6.49512C222.42 6.5142 222.895 6.53251 223.37 6.55061C223.37 6.69472 223.37 6.83884 223.37 6.98732C223.495 6.97465 223.62 6.96199 223.748 6.94894C225.588 6.85093 227.203 7.31925 228.953 7.81894C229.7 8.03144 230.438 8.18926 231.208 8.29745C231.208 8.44156 231.208 8.58567 231.208 8.73416C231.612 8.75442 231.612 8.75442 232.024 8.7751C233.378 8.91806 234.553 9.48007 235.779 10.0443C235.779 10.1884 235.779 10.3325 235.779 10.481C236.139 10.553 236.498 10.6251 236.868 10.6993C236.868 10.8435 236.868 10.9876 236.868 11.1361C237.227 11.2081 237.586 11.2802 237.957 11.3544C237.957 11.4985 237.957 11.6426 237.957 11.7911C238.172 11.7911 238.388 11.7911 238.61 11.7911C238.977 12.0914 238.977 12.0914 239.263 12.4462C239.263 12.5903 239.263 12.7344 239.263 12.8829C239.406 12.8829 239.55 12.8829 239.698 12.8829C239.77 13.2432 239.842 13.6035 239.916 13.9747C240.06 13.9747 240.203 13.9747 240.351 13.9747C240.844 14.9637 240.855 15.7282 240.787 16.8133C240.569 17.3592 240.569 17.3592 240.351 17.6867C240.208 17.6867 240.064 17.6867 239.916 17.6867C239.844 17.9029 239.772 18.119 239.698 18.3418C239.554 18.3418 239.411 18.3418 239.263 18.3418C239.263 18.4859 239.263 18.63 239.263 18.7785C239.047 18.7785 238.832 18.7785 238.61 18.7785C238.61 18.9226 238.61 19.0667 238.61 19.2152C238.179 19.3747 237.743 19.5196 237.303 19.6519C237.16 19.5798 237.016 19.5078 236.868 19.4335C236.868 19.2174 236.868 19.0012 236.868 18.7785C236.724 18.7785 236.581 18.7785 236.433 18.7785C235.562 17.828 235.562 17.828 235.562 17.0316C235.418 17.0316 235.274 17.0316 235.126 17.0316C235.054 16.8155 234.983 16.5993 234.909 16.3766C234.764 16.3526 234.62 16.3287 234.471 16.3041C232.463 15.9424 232.463 15.9424 231.643 15.2848C231.643 15.1407 231.643 14.9966 231.643 14.8481C230.924 14.776 230.206 14.704 229.466 14.6297C229.394 14.2694 229.322 13.9092 229.248 13.538C229.104 13.538 228.961 13.538 228.813 13.538C228.459 13.2377 228.459 13.2377 228.16 12.8829C228.16 12.7388 228.16 12.5947 228.16 12.4462C226.435 12.4462 224.711 12.4462 222.935 12.4462C222.935 12.5903 222.935 12.7344 222.935 12.8829C222.813 12.8483 222.691 12.8137 222.565 12.778C222.037 12.6584 221.547 12.6191 221.006 12.5954C220.8 12.5863 220.595 12.5771 220.383 12.5677C220.165 12.5591 219.948 12.5505 219.723 12.5417C219.501 12.5324 219.279 12.5232 219.05 12.5136C217.223 12.4422 215.401 12.4222 213.573 12.4462C213.68 12.5377 213.787 12.6291 213.897 12.7234C214.409 13.3117 214.268 13.8801 214.226 14.6297C214.082 14.6297 213.939 14.6297 213.791 14.6297C213.719 14.99 213.647 15.3503 213.573 15.7215C212.344 16.1323 210.902 16.0552 209.654 15.7215C209.654 15.5774 209.654 15.4333 209.654 15.2848C209.439 15.2848 209.223 15.2848 209.001 15.2848C209.001 15.1407 209.001 14.9966 209.001 14.8481C208.642 14.776 208.283 14.704 207.913 14.6297C207.841 14.3415 207.769 14.0533 207.695 13.7563C207.551 13.7563 207.407 13.7563 207.259 13.7563C207.259 13.1078 207.259 12.4593 207.259 11.7911C206.469 11.7911 205.679 11.7911 204.865 11.7911C204.865 11.647 204.865 11.5029 204.865 11.3544C204.505 11.2824 204.146 11.2103 203.776 11.1361C203.776 10.9919 203.776 10.8478 203.776 10.6993C203.286 10.7243 202.796 10.7522 202.307 10.7812C202.034 10.7964 201.761 10.8116 201.48 10.8273C200.812 10.9076 200.406 10.9765 199.857 11.3544C199.715 11.7965 199.715 11.7965 199.64 12.2278C199.083 12.507 198.689 12.4709 198.066 12.4675C197.842 12.4668 197.617 12.4661 197.386 12.4654C197.151 12.4635 196.916 12.4617 196.673 12.4598C196.318 12.4583 196.318 12.4583 195.956 12.4568C195.369 12.4543 194.783 12.4507 194.197 12.4462C194.197 12.5903 194.197 12.7344 194.197 12.8829C189.139 13.4032 189.139 13.4032 188.101 12.8829C188.101 12.7388 188.101 12.5947 188.101 12.4462C187.616 12.4712 187.13 12.4991 186.645 12.5281C186.375 12.5433 186.105 12.5585 185.826 12.5741C185.115 12.6573 184.615 12.8202 183.964 13.1012C183.749 13.1012 183.533 13.1012 183.311 13.1012C183.311 13.2454 183.311 13.3895 183.311 13.538C183.168 13.538 183.024 13.538 182.876 13.538C182.876 13.6821 182.876 13.8262 182.876 13.9747C181.928 14.8481 181.928 14.8481 181.134 14.8481C181.134 14.9922 181.134 15.1363 181.134 15.2848C180.557 15.5196 179.984 15.7421 179.393 15.9399C179.321 16.156 179.249 16.3722 179.175 16.5949C178.888 16.5949 178.6 16.5949 178.304 16.5949C178.246 16.7615 178.187 16.9282 178.127 17.0999C177.725 18.0135 177.725 18.0135 177.215 18.3418C176.522 18.2735 176.522 18.2735 175.909 18.1234C175.909 17.9793 175.909 17.8352 175.909 17.6867C175.55 17.6146 175.191 17.5426 174.821 17.4683C174.821 17.3242 174.821 17.1801 174.821 17.0316C174.605 16.9596 174.39 16.8875 174.168 16.8133C174.168 16.6692 174.168 16.525 174.168 16.3766C173.952 16.3045 173.736 16.2324 173.514 16.1582C173.509 15.7352 173.504 15.3121 173.501 14.889C173.498 14.6534 173.496 14.4178 173.493 14.1751C173.514 13.538 173.514 13.538 173.732 12.8829C173.876 12.8829 174.02 12.8829 174.168 12.8829C174.311 12.5226 174.455 12.1623 174.603 11.7911C174.819 11.7911 175.034 11.7911 175.256 11.7911C175.328 11.5749 175.4 11.3588 175.474 11.1361C175.618 11.1361 175.761 11.1361 175.909 11.1361C175.909 10.9919 175.909 10.8478 175.909 10.6993C176.053 10.6993 176.197 10.6993 176.345 10.6993C176.345 10.5552 176.345 10.4111 176.345 10.2626C176.479 10.2047 176.612 10.1467 176.75 10.0869C176.926 10.0098 177.102 9.93268 177.284 9.85322C177.458 9.77722 177.632 9.70123 177.812 9.62293C178.347 9.3836 178.347 9.3836 178.957 8.95251C179.399 8.86066 179.844 8.78472 180.291 8.72051C181.108 8.66478 181.108 8.66478 181.787 8.29745C182.497 8.18579 183.208 8.10061 183.921 8.01256C184.652 7.90782 185.347 7.72721 186.06 7.53321C187.51 7.15933 188.937 7.04662 190.428 6.96003C190.932 6.92846 191.436 6.8961 191.941 6.86279C192.16 6.84981 192.379 6.83682 192.605 6.82345C193.1 6.82322 193.1 6.82322 193.326 6.55061C193.877 6.50274 194.424 6.4678 194.976 6.44143C195.142 6.43257 195.308 6.4237 195.48 6.41457C196.014 6.38616 196.547 6.35908 197.082 6.33226C197.612 6.30535 198.143 6.27814 198.674 6.24995C199.005 6.2324 199.336 6.21559 199.666 6.19962C200.282 6.16708 200.877 6.12851 201.481 6.00019C202.301 5.84515 203.111 5.8601 203.944 5.85887Z" fill="#5E9BD7"/>
<path d="M188.101 12.4462C188.101 12.5903 188.101 12.7344 188.101 12.8829C190.113 12.8829 192.125 12.8829 194.197 12.8829C194.197 12.7388 194.197 12.5947 194.197 12.4462C195.85 12.4462 197.502 12.4462 199.205 12.4462C199.205 12.8065 199.205 13.1668 199.205 13.538C199.348 13.538 199.492 13.538 199.64 13.538C199.748 14.0784 199.748 14.0784 199.858 14.6298C201.51 14.6298 203.163 14.6298 204.865 14.6298C204.721 14.7018 204.578 14.7739 204.43 14.8481C204.389 15.0508 204.389 15.0508 204.348 15.2575C204.165 15.8802 203.89 16.0526 203.341 16.3766C203.126 16.3766 202.91 16.3766 202.688 16.3766C202.688 17.1692 202.688 17.9618 202.688 18.7785C202.832 18.7785 202.975 18.7785 203.123 18.7785C203.231 18.9947 203.231 18.9947 203.341 19.2152C203.954 19.3176 203.954 19.3176 204.661 19.3517C204.901 19.368 205.142 19.3843 205.39 19.4011C205.576 19.4118 205.762 19.4225 205.954 19.4335C205.954 19.6497 205.954 19.8659 205.954 20.0886C205.81 20.0886 205.666 20.0886 205.518 20.0886C205.518 21.1695 205.518 22.2503 205.518 23.3639C206.883 23.3639 208.248 23.3639 209.655 23.3639C209.655 23.508 209.655 23.6522 209.655 23.8006C209.208 23.8504 208.762 23.9001 208.315 23.9499C207.91 23.9794 207.91 23.9794 207.695 24.2373C207.153 24.2605 206.618 24.268 206.076 24.2646C205.906 24.2639 205.736 24.2632 205.561 24.2624C203.986 24.2493 202.412 24.2074 200.837 24.1555C200.601 24.1487 200.365 24.142 200.122 24.1351C198.849 24.0879 197.655 23.9573 196.412 23.6815C195.811 23.5553 195.218 23.5073 194.605 23.4731C193.549 23.3978 192.601 23.2213 191.585 22.9272C191.585 22.7831 191.585 22.639 191.585 22.4905C191.299 22.4798 191.013 22.4691 190.718 22.4581C190.34 22.4417 189.962 22.4252 189.585 22.4086C189.302 22.3985 189.302 22.3985 189.014 22.3882C188.023 22.3425 187.276 22.2355 186.36 21.8354C185.822 21.7502 185.282 21.6783 184.74 21.6171C183.697 21.4988 182.773 21.3287 181.788 20.962C181.788 20.8179 181.788 20.6738 181.788 20.5253C181.579 20.5456 181.579 20.5456 181.366 20.5663C180.442 20.5095 179.577 20.2711 178.74 19.8703C178.596 19.6541 178.452 19.4379 178.304 19.2152C177.858 18.9548 177.858 18.9548 177.434 18.7785C177.556 17.9168 177.781 17.2948 178.304 16.5949C178.594 16.5176 178.884 16.4453 179.175 16.3766C179.355 16.1919 179.534 16.0073 179.72 15.8171C180.264 15.2848 180.264 15.2848 181.135 15.2848C181.135 15.1407 181.135 14.9966 181.135 14.8481C181.494 14.776 181.853 14.704 182.223 14.6298C182.295 14.4136 182.367 14.1974 182.441 13.9747C182.585 13.9747 182.728 13.9747 182.876 13.9747C182.876 13.8306 182.876 13.6865 182.876 13.538C183.02 13.538 183.164 13.538 183.312 13.538C183.312 13.3939 183.312 13.2498 183.312 13.1013C184.903 12.3352 186.358 12.3799 188.101 12.4462Z" fill="#F9F9FA"/>
<path d="M241.005 17.6867C241.149 17.6867 241.292 17.6867 241.441 17.6867C241.463 18.9501 241.439 20.1526 241.223 21.3987C241.079 21.3987 240.935 21.3987 240.787 21.3987C240.787 21.8311 240.787 22.2634 240.787 22.7089C240.644 22.7089 240.5 22.7089 240.352 22.7089C240.34 22.8951 240.34 22.8951 240.327 23.085C240.228 24.2558 239.996 25.1472 239.481 26.2025C239.337 26.2025 239.194 26.2025 239.046 26.2025C239.046 26.4187 239.046 26.6349 239.046 26.8576C238.902 26.8576 238.758 26.8576 238.61 26.8576C238.538 27.362 238.467 27.8664 238.393 28.3861C238.249 28.3861 238.105 28.3861 237.957 28.3861C237.885 28.6743 237.813 28.9625 237.739 29.2595C237.596 29.2595 237.452 29.2595 237.304 29.2595C237.304 29.5477 237.304 29.8359 237.304 30.1329C237.16 30.1329 237.017 30.1329 236.869 30.1329C236.797 30.4211 236.725 30.7094 236.651 31.0063C236.507 31.0063 236.364 31.0063 236.216 31.0063C236.144 31.3666 236.072 31.7269 235.998 32.0981C235.854 32.0981 235.71 32.0981 235.562 32.0981C235.562 32.2422 235.562 32.3863 235.562 32.5348C235.347 32.6429 235.347 32.6429 235.127 32.7532C235.055 32.9693 234.983 33.1855 234.909 33.4082C234.766 33.4082 234.622 33.4082 234.474 33.4082C234.402 33.6965 234.33 33.9847 234.256 34.2816C233.969 34.3537 233.681 34.4258 233.385 34.5C233.372 34.6261 233.358 34.7522 233.344 34.8821C233.095 35.5753 232.676 35.8382 232.079 36.2468C231.935 36.2468 231.792 36.2468 231.644 36.2468C231.63 36.3729 231.617 36.499 231.603 36.629C231.353 37.3221 230.934 37.585 230.337 37.9937C230.194 37.9937 230.05 37.9937 229.902 37.9937C229.83 38.2819 229.758 38.5701 229.684 38.8671C229.145 38.9752 229.145 38.9752 228.596 39.0854C228.596 39.2296 228.596 39.3737 228.596 39.5221C228.057 39.6302 228.057 39.6302 227.507 39.7405C227.435 40.0287 227.363 40.317 227.289 40.6139C227.15 40.6409 227.011 40.668 226.868 40.6958C226.719 40.7408 226.571 40.7859 226.419 40.8323C226.347 40.9764 226.275 41.1205 226.201 41.269C225.643 41.4055 225.643 41.4055 225.112 41.4873C225.112 41.6315 225.112 41.7756 225.112 41.924C224.897 41.924 224.681 41.924 224.459 41.924C224.459 42.0682 224.459 42.2123 224.459 42.3608C223.705 42.4688 223.705 42.4688 222.935 42.5791C222.935 42.7232 222.935 42.8673 222.935 43.0158C222.504 43.0879 222.073 43.1599 221.629 43.2342C221.629 43.3783 221.629 43.5224 221.629 43.6709C221.27 43.6709 220.911 43.6709 220.54 43.6709C220.54 43.815 220.54 43.9591 220.54 44.1076C220.109 44.1796 219.678 44.2517 219.234 44.3259C219.234 44.9024 219.234 45.4789 219.234 46.0728C219.09 46.0728 218.947 46.0728 218.799 46.0728C218.799 46.2169 218.799 46.361 218.799 46.5095C218.368 46.5815 217.937 46.6536 217.492 46.7278C217.492 46.872 217.492 47.0161 217.492 47.1646C216.99 47.1646 216.487 47.1646 215.968 47.1646C215.968 47.3087 215.968 47.4528 215.968 47.6013C210.66 48.3788 205.173 48.2399 199.858 47.6013C199.858 47.4571 199.858 47.313 199.858 47.1646C199.427 47.1646 198.996 47.1646 198.552 47.1646C198.552 47.0204 198.552 46.8763 198.552 46.7278C198.195 46.7346 198.195 46.7346 197.831 46.7415C197.028 46.7278 197.028 46.7278 196.375 46.5095C196.375 46.3654 196.375 46.2213 196.375 46.0728C196.015 46.0728 195.656 46.0728 195.286 46.0728C195.214 45.4243 195.142 44.7758 195.068 44.1076C196.552 44.4377 198.035 44.7691 199.518 45.1038C199.734 45.1521 199.95 45.2004 200.172 45.2501C200.378 45.2967 200.584 45.3433 200.796 45.3913C200.982 45.4331 201.168 45.4749 201.359 45.518C201.817 45.6361 201.817 45.6361 202.253 45.8544C202.775 45.8759 203.29 45.885 203.812 45.8834C204.042 45.8837 204.042 45.8837 204.277 45.8841C204.601 45.8842 204.926 45.8838 205.25 45.8829C205.749 45.8817 206.247 45.8829 206.745 45.8843C207.06 45.8841 207.375 45.8839 207.69 45.8834C207.839 45.8839 207.989 45.8843 208.144 45.8848C208.851 45.9417 208.851 45.9417 209.437 45.6361C209.968 45.5539 210.496 45.4817 211.029 45.4177C212.314 45.2673 212.314 45.2673 213.574 44.981C213.574 44.8369 213.574 44.6928 213.574 44.5443C214.952 44.1401 216.279 43.8063 217.71 43.6709C217.71 43.5268 217.71 43.3827 217.71 43.2342C217.854 43.2342 217.998 43.2342 218.146 43.2342C218.146 43.0901 218.146 42.9459 218.146 42.7975C218.577 42.7254 219.008 42.6534 219.452 42.5791C219.452 42.435 219.452 42.2909 219.452 42.1424C219.606 42.0844 219.761 42.0264 219.92 41.9667C220.121 41.8896 220.321 41.8124 220.527 41.733C220.726 41.657 220.926 41.581 221.131 41.5027C221.661 41.3166 221.661 41.3166 221.847 40.8323C222.137 40.6867 222.427 40.5411 222.717 40.3956C222.83 40.283 222.942 40.1704 223.058 40.0544C223.371 39.7405 223.371 39.7405 224.024 39.5221C224.096 39.378 224.167 39.2339 224.241 39.0854C224.385 39.0854 224.529 39.0854 224.677 39.0854C224.677 38.9413 224.677 38.7972 224.677 38.6487C224.963 38.2939 224.963 38.2939 225.33 37.9937C225.546 37.9937 225.761 37.9937 225.983 37.9937C225.983 37.8496 225.983 37.7054 225.983 37.557C226.127 37.557 226.271 37.557 226.419 37.557C226.49 37.3408 226.562 37.1246 226.636 36.9019C227.085 36.7518 227.085 36.7518 227.507 36.6835C227.525 36.5574 227.543 36.4313 227.562 36.3014C227.77 35.6742 228.12 35.3841 228.596 34.9367C228.668 34.7926 228.739 34.6485 228.813 34.5C228.957 34.5 229.101 34.5 229.249 34.5C229.249 34.3559 229.249 34.2118 229.249 34.0633C229.548 33.7085 229.548 33.7085 229.902 33.4082C230.046 33.4082 230.189 33.4082 230.337 33.4082C230.351 33.2551 230.364 33.102 230.378 32.9442C230.622 32.0786 231.025 31.6566 231.644 31.0063C231.787 31.0063 231.931 31.0063 232.079 31.0063C232.126 30.6956 232.126 30.6956 232.174 30.3786C232.297 29.6962 232.297 29.6962 232.514 29.2595C232.658 29.2595 232.802 29.2595 232.95 29.2595C232.95 29.0433 232.95 28.8271 232.95 28.6044C233.094 28.6044 233.237 28.6044 233.385 28.6044C233.372 28.4468 233.358 28.2892 233.344 28.1268C233.394 27.3787 233.643 27.0531 234.038 26.4209C234.276 25.8446 234.483 25.2621 234.692 24.674C234.835 24.674 234.979 24.674 235.127 24.674C235.349 23.8338 235.487 22.9849 235.629 22.128C235.8 21.5501 235.944 21.3099 236.433 20.962C236.721 20.962 237.008 20.962 237.304 20.962C237.304 20.8179 237.304 20.6738 237.304 20.5253C237.937 20.0795 238.262 19.8703 239.046 19.8703C239.046 19.7261 239.046 19.582 239.046 19.4335C239.261 19.3615 239.477 19.2894 239.699 19.2152C240.044 18.8582 240.044 18.8582 240.366 18.4373C240.7 18.0134 240.7 18.0134 241.005 17.6867Z" fill="#5E9CD9"/>
<path d="M284.89 8.04877C285.06 8.04921 285.229 8.04965 285.404 8.05011C285.577 8.0499 285.75 8.04969 285.929 8.04947C286.295 8.04932 286.662 8.04973 287.029 8.05064C287.592 8.05181 288.156 8.05065 288.719 8.04925C289.074 8.0494 289.43 8.04968 289.785 8.05011C289.955 8.04966 290.125 8.04922 290.299 8.04877C291.488 8.05401 291.488 8.05401 291.731 8.29746C291.656 10.0485 291.127 11.5811 290.547 13.2241C290.5 13.3607 290.452 13.4972 290.403 13.6379C289.436 16.4202 288.319 19.1274 287.159 21.8354C285.076 21.8354 282.992 21.8354 280.846 21.8354C280.994 21.1014 281.142 20.3673 281.295 19.611C281.655 17.8172 282.003 16.0215 282.338 14.2229C282.372 14.0399 282.407 13.8568 282.442 13.6682C282.613 12.7501 282.783 11.8318 282.952 10.9133C283.015 10.5736 283.079 10.2339 283.142 9.89418C283.171 9.73589 283.199 9.5776 283.229 9.41451C283.476 8.09463 283.545 8.05469 284.89 8.04877Z" fill="#79ACE9"/>
<path d="M228.16 12.4462C228.16 12.5903 228.16 12.7344 228.16 12.8829C228.375 12.955 228.591 13.027 228.813 13.1013C228.813 13.2454 228.813 13.3895 228.813 13.538C228.957 13.538 229.1 13.538 229.249 13.538C229.356 14.0784 229.356 14.0784 229.466 14.6298C230.185 14.7018 230.903 14.7739 231.643 14.8481C231.643 14.9922 231.643 15.1363 231.643 15.2848C231.852 15.3321 231.852 15.3321 232.065 15.3803C232.514 15.5032 232.514 15.5032 232.732 15.7215C233.097 15.8074 233.465 15.8833 233.834 15.9535C234.034 15.9921 234.234 16.0307 234.44 16.0704C234.595 16.0994 234.75 16.1284 234.909 16.1582C235.017 16.5906 235.017 16.5906 235.127 17.0317C235.27 17.0317 235.414 17.0317 235.562 17.0317C235.67 17.5721 235.67 17.5721 235.78 18.1234C235.995 18.1955 236.211 18.2675 236.433 18.3418C236.433 18.4859 236.433 18.63 236.433 18.7785C236.577 18.7785 236.72 18.7785 236.868 18.7785C236.868 19.2108 236.868 19.6432 236.868 20.0886C236.653 20.0886 236.437 20.0886 236.215 20.0886C236.215 20.2327 236.215 20.3768 236.215 20.5253C235.884 20.6123 235.884 20.6123 235.547 20.701C235.253 20.7789 234.958 20.8568 234.664 20.9347C234.519 20.9727 234.374 21.0107 234.225 21.0499C233.55 21.2291 232.89 21.4189 232.228 21.6444C231.634 21.8386 231.175 21.8721 230.555 21.8355C230.555 21.9796 230.555 22.1237 230.555 22.2722C230.052 22.2722 229.549 22.2722 229.031 22.2722C229.031 21.5516 229.031 20.831 229.031 20.0886C229.031 20.2327 229.031 20.3768 229.031 20.5253C229.04 20.7325 229.049 20.9397 229.058 21.1531C229.03 21.8454 228.983 22.1474 228.595 22.7089C227.56 23.0506 226.632 23.0123 225.629 22.6133C225.373 22.4445 225.373 22.4445 225.112 22.2722C225.112 22.128 225.112 21.9839 225.112 21.8355C224.982 21.8129 224.852 21.7904 224.717 21.7672C223.869 21.4997 223.639 21.0567 223.221 20.2797C222.858 19.3666 222.72 18.4358 222.935 17.4684C223.466 17.0453 223.466 17.0453 224.023 16.8133C224.095 16.6692 224.167 16.5251 224.241 16.3766C224.026 16.3766 223.81 16.3766 223.588 16.3766C223.588 16.2325 223.588 16.0884 223.588 15.9399C223.373 15.8678 223.157 15.7958 222.935 15.7215C222.935 15.5774 222.935 15.4333 222.935 15.2848C222.791 15.2848 222.648 15.2848 222.499 15.2848C222.225 14.7344 222.299 14.4432 222.377 13.8382C222.399 13.6598 222.421 13.4813 222.444 13.2975C222.462 13.1607 222.481 13.0239 222.499 12.8829C222.643 12.8829 222.787 12.8829 222.935 12.8829C222.935 12.7388 222.935 12.5947 222.935 12.4462C224.549 11.9067 226.499 12.1848 228.16 12.4462Z" fill="#A181CF"/>
<path d="M206.363 5.18356C207.322 5.18604 208.281 5.18458 209.24 5.18206C214.543 5.17035 219.819 5.35026 225.112 5.67721C225.112 5.82132 225.112 5.96543 225.112 6.11392C225.686 6.11392 226.261 6.11392 226.853 6.11392C226.853 6.25803 226.853 6.40214 226.853 6.55062C227.114 6.54612 227.374 6.54162 227.642 6.53698C228.416 6.5356 229.14 6.61637 229.901 6.76898C229.901 6.91309 229.901 7.05721 229.901 7.20569C230.62 7.27774 231.338 7.3498 232.078 7.42404C232.078 7.56816 232.078 7.71227 232.078 7.86075C232.438 7.86075 232.797 7.86075 233.167 7.86075C233.167 8.00486 233.167 8.14898 233.167 8.29746C233.742 8.36952 234.316 8.44157 234.909 8.51581C234.909 8.65993 234.909 8.80404 234.909 8.95252C235.771 9.06061 235.771 9.06061 236.65 9.17088C236.65 9.31499 236.65 9.45911 236.65 9.60759C236.866 9.60759 237.081 9.60759 237.303 9.60759C237.303 9.7517 237.303 9.89581 237.303 10.0443C237.469 10.0668 237.636 10.0893 237.807 10.1125C238.432 10.2729 238.66 10.4093 239.045 10.9177C239.045 11.0618 239.045 11.2059 239.045 11.3544C239.261 11.3544 239.476 11.3544 239.698 11.3544C239.698 11.4985 239.698 11.6427 239.698 11.7911C239.914 11.8632 240.129 11.9352 240.351 12.0095C240.351 12.2257 240.351 12.4418 240.351 12.6645C240.495 12.6645 240.639 12.6645 240.787 12.6645C240.787 12.8087 240.787 12.9528 240.787 13.1013C240.93 13.1013 241.074 13.1013 241.222 13.1013C241.294 13.6777 241.366 14.2542 241.44 14.8481C241.584 14.8481 241.727 14.8481 241.875 14.8481C241.875 15.9289 241.875 17.0098 241.875 18.1234C241.732 18.1234 241.588 18.1234 241.44 18.1234C241.44 17.9793 241.44 17.8352 241.44 17.6867C241.296 17.6867 241.152 17.6867 241.004 17.6867C240.946 17.8263 240.888 17.9659 240.828 18.1098C240.569 18.5601 240.569 18.5601 239.916 18.7785C239.844 18.9946 239.772 19.2108 239.698 19.4335C239.483 19.4335 239.267 19.4335 239.045 19.4335C239.045 19.5777 239.045 19.7218 239.045 19.8702C238.09 20.5253 238.09 20.5253 237.521 20.5253C237.739 20.0886 237.956 19.6519 238.174 19.2152C238.318 19.2152 238.462 19.2152 238.61 19.2152C238.61 19.0711 238.61 18.927 238.61 18.7785C238.825 18.7785 239.041 18.7785 239.263 18.7785C239.263 18.6344 239.263 18.4902 239.263 18.3418C239.438 18.2022 239.613 18.0625 239.793 17.9187C240.403 17.5098 240.403 17.5098 240.569 16.8133C240.601 15.8228 240.592 14.941 240.351 13.9747C240.208 13.9747 240.064 13.9747 239.916 13.9747C239.844 13.6144 239.772 13.2541 239.698 12.8829C239.554 12.8829 239.411 12.8829 239.263 12.8829C239.263 12.7388 239.263 12.5947 239.263 12.4462C239.047 12.3741 238.832 12.3021 238.61 12.2278C238.61 12.0837 238.61 11.9396 238.61 11.7911C238.394 11.7911 238.179 11.7911 237.956 11.7911C237.956 11.647 237.956 11.5029 237.956 11.3544C237.597 11.2824 237.238 11.2103 236.868 11.1361C236.868 10.992 236.868 10.8478 236.868 10.6994C236.509 10.6273 236.149 10.5552 235.779 10.481C235.779 10.3369 235.779 10.1928 235.779 10.0443C235.523 10.0173 235.523 10.0173 235.262 9.98971C234.394 9.8095 233.645 9.50729 232.833 9.15723C232.293 8.95119 231.776 8.83176 231.207 8.73417C231.207 8.59005 231.207 8.44594 231.207 8.29746C230.83 8.27044 230.83 8.27044 230.445 8.24287C229.449 8.13568 228.5 7.8989 227.534 7.6424C226.148 7.27597 224.807 7.0484 223.37 6.98733C223.37 6.84322 223.37 6.69911 223.37 6.55062C222.949 6.55822 222.949 6.55822 222.52 6.56598C220.051 6.59529 217.613 6.5137 215.151 6.33227C212.216 6.1222 209.291 6.07075 206.348 6.07297C206.037 6.07274 206.037 6.07274 205.719 6.07249C205.127 6.07255 204.536 6.07444 203.944 6.07724C203.767 6.0775 203.59 6.07776 203.407 6.07803C202.552 6.08515 201.785 6.15409 200.946 6.33227C200.357 6.37641 199.77 6.41298 199.18 6.44145C198.838 6.45964 198.495 6.47783 198.152 6.49604C197.614 6.52363 197.076 6.55089 196.538 6.57792C196.017 6.60436 195.497 6.63203 194.976 6.6598C194.814 6.66754 194.652 6.67528 194.485 6.68326C193.732 6.66004 193.732 6.66004 193.108 6.98733C192.72 7.02939 192.33 7.05809 191.941 7.08116C191.698 7.0972 191.455 7.11325 191.205 7.12978C190.696 7.1616 190.188 7.19235 189.679 7.22189C188.202 7.32158 186.841 7.53857 185.413 7.92728C184.685 8.11869 183.977 8.2211 183.23 8.31111C182.468 8.40333 181.811 8.50759 181.085 8.76061C180.481 8.95252 180.481 8.95252 179.828 8.73417C179.9 8.59005 179.972 8.44594 180.046 8.29746C179.83 8.29746 179.615 8.29746 179.393 8.29746C179.393 8.15335 179.393 8.00923 179.393 7.86075C180.873 7.44496 182.205 7.11649 183.747 7.20569C183.747 7.06157 183.747 6.91746 183.747 6.76898C185.277 6.58256 186.778 6.52418 188.319 6.55062C188.319 6.40651 188.319 6.2624 188.319 6.11392C189.253 6.11392 190.187 6.11392 191.149 6.11392C191.149 5.9698 191.149 5.82569 191.149 5.67721C196.224 5.30667 201.276 5.17027 206.363 5.18356Z" fill="#71A7E5"/>
<path d="M198.987 14.1931C199.029 14.5113 199.069 14.8298 199.109 15.1484C199.132 15.3257 199.155 15.503 199.178 15.6857C199.204 16.1582 199.204 16.1582 198.987 16.595C198.843 16.595 198.699 16.595 198.551 16.595C198.551 16.8111 198.551 17.0273 198.551 17.25C199.126 17.5382 199.701 17.8265 200.293 18.1234C200.293 18.3396 200.293 18.5558 200.293 18.7785C200.437 18.7785 200.58 18.7785 200.728 18.7785C201.766 19.7179 201.766 19.7179 202.035 20.5253C202.178 20.5253 202.322 20.5253 202.47 20.5253C202.715 22.1903 202.715 22.1903 202.47 22.9272C202.326 22.9272 202.183 22.9272 202.035 22.9272C202.035 23.0713 202.035 23.2155 202.035 23.3639C201.285 23.74 200.461 23.6647 199.64 23.5823C198.973 23.2821 198.973 23.2821 198.551 22.9272C198.551 22.7831 198.551 22.639 198.551 22.4905C198.349 22.4703 198.349 22.4703 198.143 22.4496C197.68 22.2722 197.68 22.2722 197.408 21.7126C197.354 21.537 197.3 21.3614 197.245 21.1804C197.101 21.1804 196.958 21.1804 196.81 21.1804C196.81 20.9642 196.81 20.7481 196.81 20.5253C196.666 20.5253 196.522 20.5253 196.374 20.5253C196.374 19.7327 196.374 18.9401 196.374 18.1234C196.518 18.1234 196.661 18.1234 196.81 18.1234C196.81 17.9793 196.81 17.8352 196.81 17.6867C196.419 17.6935 196.419 17.6935 196.02 17.7004C195.246 17.7018 194.522 17.621 193.762 17.4684C193.762 17.3243 193.762 17.1801 193.762 17.0317C193.618 17.0317 193.474 17.0317 193.326 17.0317C193.326 16.8875 193.326 16.7434 193.326 16.595C193.111 16.5229 192.895 16.4508 192.673 16.3766C192.646 14.6843 192.646 14.6843 192.891 14.1931C194.693 13.1002 197.173 13.1537 198.987 14.1931Z" fill="#93BA72"/>
<path d="M229.467 14.6298C230.185 14.7018 230.904 14.7739 231.644 14.8481C231.644 14.9922 231.644 15.1363 231.644 15.2848C231.853 15.3321 231.853 15.3321 232.066 15.3804C232.515 15.5032 232.515 15.5032 232.732 15.7215C233.098 15.8074 233.466 15.8833 233.834 15.9535C234.035 15.9921 234.235 16.0307 234.441 16.0704C234.595 16.0994 234.75 16.1284 234.909 16.1582C235.017 16.5906 235.017 16.5906 235.127 17.0317C235.271 17.0317 235.415 17.0317 235.563 17.0317C235.67 17.5721 235.67 17.5721 235.78 18.1234C235.996 18.1955 236.211 18.2675 236.433 18.3418C236.433 18.4859 236.433 18.63 236.433 18.7785C236.577 18.7785 236.721 18.7785 236.869 18.7785C236.869 19.2108 236.869 19.6432 236.869 20.0886C236.653 20.0886 236.438 20.0886 236.216 20.0886C236.216 20.2327 236.216 20.3768 236.216 20.5253C235.995 20.5833 235.775 20.6413 235.547 20.701C235.253 20.7789 234.959 20.8568 234.665 20.9347C234.447 20.9917 234.447 20.9917 234.226 21.0499C233.551 21.2291 232.891 21.4189 232.229 21.6444C231.634 21.8386 231.176 21.8721 230.555 21.8355C230.555 21.9796 230.555 22.1237 230.555 22.2722C230.052 22.2722 229.549 22.2722 229.031 22.2722C229.041 22.1247 229.051 21.9772 229.062 21.8252C229.15 20.5917 229.15 20.5917 228.596 19.5427C228.452 19.4346 228.308 19.3266 228.16 19.2152C228.16 19.0711 228.16 18.927 228.16 18.7785C228.017 18.7785 227.873 18.7785 227.725 18.7785C227.371 18.4783 227.371 18.4783 227.072 18.1234C227.072 17.9793 227.072 17.8352 227.072 17.6867C226.856 17.6147 226.641 17.5426 226.419 17.4684C226.419 17.3243 226.419 17.1801 226.419 17.0317C226.203 16.9596 225.988 16.8875 225.766 16.8133C226.556 16.8133 227.346 16.8133 228.16 16.8133C228.16 16.6692 228.16 16.5251 228.16 16.3766C228.376 16.3766 228.591 16.3766 228.814 16.3766C228.814 16.2325 228.814 16.0884 228.814 15.9399C228.957 15.9399 229.101 15.9399 229.249 15.9399C229.321 15.5075 229.393 15.0752 229.467 14.6298Z" fill="#F7F8F8"/>
<path d="M202.307 10.672C202.582 10.676 202.857 10.6799 203.141 10.684C203.351 10.689 203.561 10.6941 203.777 10.6993C203.777 10.8434 203.777 10.9876 203.777 11.136C204.316 11.2441 204.316 11.2441 204.866 11.3544C204.866 11.4985 204.866 11.6426 204.866 11.7911C205.656 11.7911 206.446 11.7911 207.26 11.7911C207.26 12.2234 207.26 12.6558 207.26 13.1012C207.117 13.1012 206.973 13.1012 206.825 13.1012C206.825 12.813 206.825 12.5248 206.825 12.2278C206.394 12.2278 205.963 12.2278 205.519 12.2278C205.447 12.8763 205.375 13.5248 205.301 14.193C205.948 14.2651 206.594 14.3371 207.26 14.4114C207.368 14.7356 207.368 14.7356 207.478 15.0664C207.622 15.1385 207.765 15.2105 207.913 15.2848C207.913 15.4289 207.913 15.573 207.913 15.7215C208.057 15.7215 208.201 15.7215 208.349 15.7215C208.482 17.301 208.482 17.301 207.859 18.0824C207.661 18.2401 207.464 18.3977 207.26 18.5601C207.112 18.6862 206.964 18.8123 206.811 18.9422C206.032 19.4465 205.287 19.4592 204.376 19.4472C204.181 19.4452 203.987 19.4432 203.787 19.4412C203.64 19.4387 203.493 19.4361 203.342 19.4335C203.27 19.2173 203.198 19.0012 203.124 18.7784C202.98 18.7784 202.836 18.7784 202.688 18.7784C202.309 18.017 202.47 17.1802 202.688 16.3765C203.221 15.9248 203.514 15.7215 204.212 15.7215C204.284 15.4333 204.356 15.145 204.43 14.8481C204.308 14.8515 204.186 14.8549 204.061 14.8585C203.508 14.8721 202.955 14.8806 202.403 14.889C202.211 14.8945 202.019 14.9 201.821 14.9056C201.545 14.9088 201.545 14.9088 201.262 14.912C201.092 14.9155 200.923 14.9189 200.747 14.9224C200.173 14.8283 199.981 14.66 199.64 14.193C199.64 13.9768 199.64 13.7607 199.64 13.5379C199.497 13.5379 199.353 13.5379 199.205 13.5379C199.205 13.1056 199.205 12.6733 199.205 12.2278C199.349 12.2278 199.492 12.2278 199.64 12.2278C199.658 12.0567 199.676 11.8855 199.695 11.7092C199.858 11.136 199.858 11.136 200.205 10.8836C200.921 10.6317 201.551 10.658 202.307 10.672Z" fill="#E4C48E"/>
<path d="M188.101 12.4462C188.101 12.5903 188.101 12.7344 188.101 12.8829C188.676 12.955 189.251 13.027 189.843 13.1013C189.628 13.2454 189.412 13.3895 189.19 13.538C189.154 14.193 189.154 14.193 189.19 14.8481C189.118 14.9922 189.046 15.1363 188.972 15.2848C188.829 15.2848 188.685 15.2848 188.537 15.2848C188.492 15.4605 188.447 15.6361 188.401 15.8171C188.302 16.0017 188.203 16.1863 188.101 16.3766C187.421 16.554 187.421 16.554 186.795 16.5949C186.795 16.7391 186.795 16.8832 186.795 17.0316C185.26 17.2937 183.657 17.5556 182.223 16.8133C182.151 16.2368 182.08 15.6604 182.006 15.0665C181.718 15.1385 181.431 15.2106 181.135 15.2848C181.135 15.1407 181.135 14.9966 181.135 14.8481C181.494 14.776 181.853 14.704 182.223 14.6298C182.295 14.4136 182.367 14.1974 182.441 13.9747C182.585 13.9747 182.728 13.9747 182.876 13.9747C182.876 13.8306 182.876 13.6865 182.876 13.538C183.02 13.538 183.164 13.538 183.312 13.538C183.312 13.3939 183.312 13.2498 183.312 13.1013C184.903 12.3352 186.358 12.3799 188.101 12.4462Z" fill="#E5C591"/>
<path d="M207.913 11.136C211.591 10.9749 211.591 10.9749 213.138 12.0095C213.138 12.1536 213.138 12.2977 213.138 12.4462C213.282 12.4462 213.425 12.4462 213.573 12.4462C213.927 12.6782 213.927 12.6782 214.226 13.1012C214.267 13.9064 214.267 13.9064 214.226 14.6297C214.083 14.6297 213.939 14.6297 213.791 14.6297C213.719 14.99 213.647 15.3503 213.573 15.7215C212.345 16.1323 210.902 16.0552 209.655 15.7215C209.655 15.5774 209.655 15.4333 209.655 15.2848C209.439 15.2848 209.224 15.2848 209.001 15.2848C209.001 15.1407 209.001 14.9966 209.001 14.8481C208.642 14.776 208.283 14.704 207.913 14.6297C207.841 14.3415 207.769 14.0533 207.695 13.7563C207.551 13.7563 207.408 13.7563 207.26 13.7563C207.26 13.1078 207.26 12.4593 207.26 11.7911C207.403 11.7911 207.547 11.7911 207.695 11.7911C207.767 11.5749 207.839 11.3588 207.913 11.136Z" fill="#A181CE"/>
<path d="M228.16 12.4462C228.16 12.5903 228.16 12.7344 228.16 12.8829C228.375 12.955 228.591 13.027 228.813 13.1013C228.813 13.2454 228.813 13.3895 228.813 13.538C228.957 13.538 229.1 13.538 229.249 13.538C229.493 15.2029 229.493 15.2029 229.249 15.9399C229.105 15.9399 228.961 15.9399 228.813 15.9399C228.813 16.084 228.813 16.2281 228.813 16.3766C227.978 16.574 227.207 16.618 226.35 16.6086C226.001 16.6056 226.001 16.6056 225.645 16.6026C225.469 16.6001 225.293 16.5976 225.112 16.5949C225.112 16.4508 225.112 16.3067 225.112 16.1582C224.465 16.0862 223.819 16.0141 223.153 15.9399C223.081 15.7237 223.009 15.5075 222.935 15.2848C222.791 15.2848 222.648 15.2848 222.5 15.2848C222.225 14.7344 222.299 14.4432 222.377 13.8382C222.399 13.6598 222.421 13.4813 222.444 13.2975C222.462 13.1607 222.481 13.0239 222.5 12.8829C222.643 12.8829 222.787 12.8829 222.935 12.8829C222.935 12.7388 222.935 12.5947 222.935 12.4462C224.549 11.9067 226.499 12.1848 228.16 12.4462Z" fill="#8FB870"/>
<path d="M198.987 14.1931C199.029 14.5113 199.069 14.8298 199.109 15.1484C199.132 15.3257 199.155 15.503 199.178 15.6857C199.204 16.1582 199.204 16.1582 198.987 16.595C198.843 16.595 198.699 16.595 198.551 16.595C198.551 16.8111 198.551 17.0273 198.551 17.25C198.695 17.3941 198.839 17.5382 198.987 17.6867C198.708 17.7182 198.43 17.7498 198.143 17.7823C197.624 17.841 197.279 17.8881 196.81 18.1234C196.81 17.9793 196.81 17.8352 196.81 17.6867C196.419 17.6935 196.419 17.6935 196.02 17.7004C195.246 17.7018 194.522 17.621 193.762 17.4684C193.762 17.3243 193.762 17.1801 193.762 17.0317C193.618 17.0317 193.474 17.0317 193.326 17.0317C193.326 16.8875 193.326 16.7434 193.326 16.595C193.111 16.5229 192.895 16.4508 192.673 16.3766C192.646 14.6843 192.646 14.6843 192.891 14.1931C194.693 13.1002 197.173 13.1537 198.987 14.1931Z" fill="#DF8E9F"/>
<path d="M232.732 15.9399C233.005 15.9309 233.279 15.9218 233.562 15.9126C233.716 15.9075 233.87 15.9024 234.028 15.8972C234.473 15.9399 234.473 15.9399 235.126 16.3766C235.126 16.5927 235.126 16.8089 235.126 17.0316C235.27 17.0316 235.414 17.0316 235.562 17.0316C235.562 17.6081 235.562 18.1845 235.562 18.7785C235.418 18.7785 235.274 18.7785 235.126 18.7785C235.126 18.9946 235.126 19.2108 235.126 19.4335C234.983 19.4335 234.839 19.4335 234.691 19.4335C234.619 19.6497 234.547 19.8659 234.473 20.0886C234.33 20.0886 234.186 20.0886 234.038 20.0886C234.038 20.2327 234.038 20.3768 234.038 20.5253C233.822 20.5253 233.607 20.5253 233.385 20.5253C233.385 20.6694 233.385 20.8135 233.385 20.962C232.451 20.962 231.517 20.962 230.554 20.962C230.554 20.8179 230.554 20.6738 230.554 20.5253C230.339 20.4533 230.123 20.3812 229.901 20.307C229.901 19.5864 229.901 18.8658 229.901 18.1234C230.045 18.1234 230.189 18.1234 230.337 18.1234C230.409 17.8352 230.48 17.547 230.554 17.25C230.914 17.1779 231.273 17.1059 231.643 17.0316C231.643 16.8875 231.643 16.7434 231.643 16.5949C232.002 16.5229 232.361 16.4508 232.732 16.3766C232.732 16.2325 232.732 16.0883 232.732 15.9399Z" fill="#E6C690"/>
<path d="M179.829 24.019C179.9 24.5954 179.972 25.1719 180.046 25.7658C180.19 25.7658 180.334 25.7658 180.482 25.7658C180.554 26.1981 180.625 26.6305 180.699 27.0759C180.843 27.0759 180.987 27.0759 181.135 27.0759C181.135 27.22 181.135 27.3642 181.135 27.5126C181.279 27.5126 181.422 27.5126 181.57 27.5126C181.642 27.8729 181.714 28.2332 181.788 28.6044C182.004 28.6765 182.219 28.7485 182.441 28.8228C182.7 29.3823 182.7 29.3823 182.877 29.9145C183.02 29.9145 183.164 29.9145 183.312 29.9145C184.183 30.865 184.183 30.865 184.183 31.6614C184.327 31.6614 184.47 31.6614 184.618 31.6614C184.618 31.8055 184.618 31.9496 184.618 32.0981C184.977 32.1701 185.337 32.2422 185.707 32.3164C185.815 32.7488 185.815 32.7488 185.925 33.1899C186.068 33.1899 186.212 33.1899 186.36 33.1899C186.36 33.406 186.36 33.6222 186.36 33.8449C186.504 33.8449 186.647 33.8449 186.795 33.8449C186.879 34.2065 186.951 34.5709 187.013 34.9367C186.941 35.0087 186.869 35.0808 186.795 35.155C186.286 35.0923 185.778 35.0198 185.271 34.9367C185.2 34.6485 185.128 34.3602 185.054 34.0633C184.865 34.043 184.865 34.043 184.673 34.0223C183.982 33.772 183.719 33.3515 183.312 32.7531C183.312 32.609 183.312 32.4649 183.312 32.3164C183.168 32.3164 183.025 32.3164 182.877 32.3164C182.223 31.5606 182.223 31.5606 182.223 31.0063C182.08 31.0063 181.936 31.0063 181.788 31.0063C181.788 30.8622 181.788 30.7181 181.788 30.5696C181.573 30.4975 181.357 30.4255 181.135 30.3512C181.135 30.2071 181.135 30.063 181.135 29.9145C180.991 29.9145 180.848 29.9145 180.699 29.9145C180.699 29.6984 180.699 29.4822 180.699 29.2595C180.556 29.2595 180.412 29.2595 180.264 29.2595C180.192 28.8992 180.12 28.5389 180.046 28.1677C179.831 28.0956 179.615 28.0236 179.393 27.9493C179.393 27.6611 179.393 27.3729 179.393 27.0759C179.25 27.0759 179.106 27.0759 178.958 27.0759C178.886 26.4995 178.814 25.923 178.74 25.3291C178.596 25.3291 178.453 25.3291 178.305 25.3291C178.305 24.8968 178.305 24.4644 178.305 24.019C178.885 23.7278 179.212 23.8724 179.829 24.019Z" fill="#9DC2EF"/>
<path d="M219.886 12.8829C220.526 13.4151 220.526 13.4151 220.975 13.9747C221.047 14.0467 221.119 14.1188 221.193 14.193C221.222 14.9929 221.228 15.6137 220.975 16.3766C220.688 16.3766 220.4 16.3766 220.104 16.3766C220.032 16.5927 219.96 16.8089 219.886 17.0316C219.743 17.0316 219.599 17.0316 219.451 17.0316C219.451 17.1757 219.451 17.3198 219.451 17.4683C218.706 17.7174 218.126 17.7081 217.342 17.7003C216.957 17.6974 216.957 17.6974 216.564 17.6944C216.269 17.6906 216.269 17.6906 215.968 17.6867C215.896 17.3264 215.824 16.9661 215.75 16.5949C215.606 16.5949 215.462 16.5949 215.314 16.5949C215.386 15.9464 215.458 15.2979 215.532 14.6297C215.676 14.6297 215.82 14.6297 215.968 14.6297C215.968 14.4856 215.968 14.3415 215.968 14.193C216.183 14.193 216.399 14.193 216.621 14.193C216.621 14.0489 216.621 13.9048 216.621 13.7563C216.98 13.6842 217.339 13.6122 217.709 13.5379C217.709 13.3938 217.709 13.2497 217.709 13.1012C218.409 12.7503 219.13 12.7477 219.886 12.8829Z" fill="#94BB73"/>
<path d="M220.54 18.1234C220.756 18.1955 220.971 18.2675 221.193 18.3418C221.193 18.4859 221.193 18.63 221.193 18.7785C221.337 18.7785 221.481 18.7785 221.629 18.7785C221.629 18.9226 221.629 19.0667 221.629 19.2152C221.916 19.2873 222.203 19.3593 222.5 19.4336C222.5 19.5777 222.5 19.7218 222.5 19.8703C222.643 19.8703 222.787 19.8703 222.935 19.8703C223.24 21.9746 223.24 21.9746 222.949 22.9682C222.384 23.4659 221.949 23.4897 221.209 23.4458C220.55 23.3263 220.022 23.0522 219.452 22.7089C219.452 22.5648 219.452 22.4207 219.452 22.2722C219.317 22.2542 219.182 22.2361 219.043 22.2176C218.581 22.0538 218.581 22.0538 218.309 21.6035C218.255 21.4638 218.201 21.3242 218.145 21.1804C218.002 21.1804 217.858 21.1804 217.71 21.1804C217.71 20.5319 217.71 19.8834 217.71 19.2152C217.854 19.2152 217.997 19.2152 218.145 19.2152C218.172 19.0756 218.199 18.936 218.227 18.7921C218.272 18.6435 218.317 18.4949 218.363 18.3418C219.047 17.9986 219.791 18.0728 220.54 18.1234Z" fill="#DF8C9E"/>
<path d="M209.655 19.4335C209.655 19.5777 209.655 19.7218 209.655 19.8702C210.194 19.9783 210.194 19.9783 210.743 20.0886C210.743 20.2327 210.743 20.3768 210.743 20.5253C210.887 20.5253 211.031 20.5253 211.179 20.5253C211.202 20.8753 211.219 21.2257 211.233 21.5761C211.243 21.7712 211.253 21.9663 211.264 22.1672C211.179 22.7089 211.179 22.7089 210.822 23.0935C209.75 23.6575 208.61 23.6121 207.423 23.6096C207.157 23.6101 206.891 23.6107 206.617 23.6113C205.954 23.5823 205.954 23.5823 205.518 23.3639C205.179 22.344 205.132 21.1114 205.518 20.0886C206.895 19.3728 208.127 19.3575 209.655 19.4335Z" fill="#DF8D9F"/>
<path d="M190.496 16.322C190.779 16.3135 190.779 16.3135 191.068 16.3049C191.687 16.3907 191.861 16.5443 192.238 17.0316C192.621 17.7998 192.441 18.6207 192.238 19.4335C191.675 20.2085 191.358 20.4741 190.428 20.7027C190.235 20.7162 190.042 20.7297 189.843 20.7437C189.843 20.8878 189.843 21.0319 189.843 21.1804C189.535 21.1863 189.226 21.1905 188.918 21.194C188.66 21.1978 188.66 21.1978 188.397 21.2017C187.892 21.1807 187.485 21.1455 187.013 20.962C186.688 19.9854 186.688 19.1 187.013 18.1234C187.157 18.1234 187.3 18.1234 187.448 18.1234C187.52 17.9072 187.592 17.6911 187.666 17.4684C187.81 17.4684 187.953 17.4684 188.102 17.4684C188.102 17.3242 188.102 17.1801 188.102 17.0316C188.317 17.0316 188.533 17.0316 188.755 17.0316C188.755 16.8875 188.755 16.7434 188.755 16.5949C189.387 16.3835 189.836 16.3338 190.496 16.322Z" fill="#A383CF"/>
<path d="M212.049 16.5949C212.768 16.5949 213.486 16.5949 214.226 16.5949C214.298 16.8831 214.37 17.1714 214.444 17.4683C214.731 17.5404 215.019 17.6124 215.315 17.6867C215.387 18.047 215.459 18.4073 215.533 18.7785C215.676 18.7785 215.82 18.7785 215.968 18.7785C215.968 18.9946 215.968 19.2108 215.968 19.4335C216.112 19.4335 216.255 19.4335 216.403 19.4335C216.446 19.8246 216.486 20.2158 216.526 20.6072C216.549 20.825 216.571 21.0429 216.595 21.2674C216.621 21.8354 216.621 21.8354 216.403 22.2721C216.26 22.2721 216.116 22.2721 215.968 22.2721C215.968 22.4162 215.968 22.5604 215.968 22.7088C215.252 22.8834 214.943 22.9483 214.226 22.7088C214.226 22.5647 214.226 22.4206 214.226 22.2721C214.011 22.2721 213.795 22.2721 213.573 22.2721C213.573 22.128 213.573 21.9839 213.573 21.8354C213.43 21.8354 213.286 21.8354 213.138 21.8354C213.066 21.5472 212.994 21.259 212.92 20.962C212.776 20.962 212.633 20.962 212.485 20.962C211.789 19.6532 211.705 18.5051 211.832 17.0316C211.903 16.8875 211.975 16.7434 212.049 16.5949Z" fill="#E9C892"/>
<path d="M207.26 14.6298C207.696 14.93 207.696 14.93 207.913 15.2848C207.913 15.4289 207.913 15.573 207.913 15.7215C208.057 15.7215 208.201 15.7215 208.349 15.7215C208.482 17.301 208.482 17.301 207.859 18.0825C207.661 18.2401 207.464 18.3977 207.26 18.5601C207.112 18.6862 206.964 18.8123 206.811 18.9423C206.032 19.4465 205.287 19.4592 204.375 19.4472C204.181 19.4452 203.987 19.4433 203.787 19.4412C203.64 19.4387 203.493 19.4362 203.341 19.4336C203.27 19.2174 203.198 19.0012 203.124 18.7785C202.98 18.7785 202.836 18.7785 202.688 18.7785C202.309 18.0171 202.47 17.1802 202.688 16.3766C203.221 15.9248 203.514 15.7215 204.212 15.7215C204.212 15.5774 204.212 15.4333 204.212 15.2848C205.302 14.6292 206.021 14.5075 207.26 14.6298Z" fill="#DF8C9E"/>
<path d="M205.518 24.4557C208.391 24.4557 211.265 24.4557 214.226 24.4557C214.226 24.5277 214.226 24.5998 214.226 24.674C213.436 24.7461 212.645 24.8182 211.831 24.8924C212.478 25.0005 212.478 25.0005 213.137 25.1108C213.137 25.1828 213.137 25.2549 213.137 25.3291C210.91 25.3291 208.683 25.3291 206.388 25.3291C206.388 25.257 206.388 25.185 206.388 25.1108C206.963 25.0387 207.538 24.9666 208.13 24.8924C207.268 24.8203 206.406 24.7483 205.518 24.674C205.518 24.602 205.518 24.5299 205.518 24.4557Z" fill="#8EB9EC"/>
<path d="M187.013 35.1551C187.665 35.099 188.085 35.1489 188.7 35.3871C189.19 35.8101 189.19 35.8101 189.367 36.6153C189.38 36.854 189.394 37.0927 189.408 37.3386C189.067 37.5024 189.067 37.5024 188.537 37.557C187.992 37.3101 187.52 37.0064 187.013 36.6836C187.013 36.1792 187.013 35.6748 187.013 35.1551Z" fill="#9DC2EF"/>
<path d="M213.138 12.2279C215.353 12.2029 217.564 12.2275 219.778 12.3098C219.997 12.3165 220.217 12.3232 220.443 12.3302C220.648 12.3386 220.853 12.3471 221.064 12.3558C221.246 12.3627 221.429 12.3695 221.617 12.3766C222.064 12.4462 222.064 12.4462 222.499 12.8829C222.291 12.899 222.291 12.899 222.078 12.9153C221.898 12.9317 221.718 12.948 221.533 12.9648C221.354 12.98 221.174 12.9952 220.99 13.0109C220.841 13.0407 220.693 13.0705 220.54 13.1013C220.468 13.2454 220.396 13.3895 220.322 13.538C220.178 13.3939 220.035 13.2498 219.887 13.1013C219.349 13.0035 219.349 13.0035 218.724 12.9708C218.377 12.9448 218.377 12.9448 218.023 12.9183C217.78 12.9021 217.538 12.886 217.288 12.8693C216.81 12.8356 216.331 12.8012 215.853 12.7661C215.534 12.7445 215.534 12.7445 215.209 12.7225C214.662 12.6646 214.662 12.6646 214.009 12.4462C213.937 12.6624 213.865 12.8786 213.791 13.1013C213.719 12.8851 213.647 12.6689 213.573 12.4462C213.429 12.3742 213.286 12.3021 213.138 12.2279Z" fill="#CFE0EB"/>
<path d="M235.562 20.5253C235.562 20.6694 235.562 20.8136 235.562 20.962C235.423 21.0251 235.284 21.0881 235.14 21.1531C234.658 21.3612 234.658 21.3612 234.473 21.8355C234.343 21.7904 234.213 21.7454 234.079 21.699C233.541 21.5501 233.541 21.5501 232.949 22.0538C232.878 22.27 232.806 22.4862 232.732 22.7089C231.892 22.757 231.318 22.6223 230.555 22.2722C230.555 22.1281 230.555 21.9839 230.555 21.8355C230.692 21.8115 230.829 21.7876 230.97 21.763C232.204 21.5337 233.31 21.2145 234.473 20.7437C235.127 20.5253 235.127 20.5253 235.562 20.5253ZM230.555 22.4905C230.77 22.4905 230.986 22.4905 231.208 22.4905C231.208 22.6346 231.208 22.7787 231.208 22.9272C230.92 22.8552 230.633 22.7831 230.337 22.7089C230.409 22.6368 230.481 22.5648 230.555 22.4905Z" fill="#93BCED"/>
<path d="M209.001 12.4462C210.129 12.3783 210.888 12.4477 211.831 13.1012C212.022 13.6881 212.022 13.6881 212.049 14.193C210.967 14.0808 210.026 13.9236 209.001 13.538C209.001 13.1777 209.001 12.8174 209.001 12.4462Z" fill="#E7E0F3"/>
<path d="M205.083 11.7911C205.801 11.7911 206.52 11.7911 207.26 11.7911C207.26 12.2235 207.26 12.6558 207.26 13.1013C207.116 13.1013 206.973 13.1013 206.824 13.1013C206.824 12.813 206.824 12.5248 206.824 12.2278C206.393 12.2278 205.962 12.2278 205.518 12.2278C205.446 12.8764 205.375 13.5249 205.301 14.193C205.947 14.2651 206.594 14.3372 207.26 14.4114C207.26 14.4834 207.26 14.5555 207.26 14.6297C206.863 14.6703 206.863 14.6703 206.457 14.7116C205.722 14.802 205.105 14.9673 204.43 15.2848C204.531 15.0281 204.531 15.0281 204.634 14.7662C204.925 13.7681 204.999 12.8276 205.083 11.7911Z" fill="#F3D9D1"/>
<path d="M188.754 22.2722C189.688 22.3442 190.622 22.4163 191.584 22.4905C191.584 22.6346 191.584 22.7787 191.584 22.9272C192.159 22.9993 192.734 23.0713 193.326 23.1456C193.326 23.2176 193.326 23.2897 193.326 23.3639C192.366 23.6046 191.479 23.599 190.496 23.5823C190.496 23.4382 190.496 23.2941 190.496 23.1456C190.424 23.2176 190.352 23.2897 190.278 23.3639C189.77 23.3729 189.262 23.3732 188.754 23.3639C188.754 23.0036 188.754 22.6434 188.754 22.2722Z" fill="#A5C7F0"/>
<path d="M224.677 18.3418C224.892 18.3418 225.108 18.3418 225.33 18.3418C225.33 18.4859 225.33 18.63 225.33 18.7785C225.474 18.7785 225.617 18.7785 225.765 18.7785C226.119 19.0787 226.119 19.0787 226.418 19.4336C226.418 19.5777 226.418 19.7218 226.418 19.8703C226.634 19.9423 226.85 20.0144 227.072 20.0886C227.072 20.2327 227.072 20.3769 227.072 20.5253C227.215 20.5253 227.359 20.5253 227.507 20.5253C227.507 20.7415 227.507 20.9577 227.507 21.1804C227.148 21.1083 226.789 21.0363 226.418 20.9621C226.418 20.8179 226.418 20.6738 226.418 20.5253C226.284 20.5118 226.149 20.4983 226.01 20.4844C225.548 20.307 225.548 20.307 225.275 19.7475C225.222 19.5718 225.168 19.3962 225.112 19.2152C224.968 19.2152 224.825 19.2152 224.677 19.2152C224.677 18.927 224.677 18.6388 224.677 18.3418Z" fill="#ECE6F5"/>
<path d="M187.013 14.193C187.013 14.4092 187.013 14.6253 187.013 14.8481C186.797 14.8481 186.582 14.8481 186.36 14.8481C186.36 14.9922 186.36 15.1363 186.36 15.2848C185.569 15.3568 184.779 15.4289 183.965 15.5031C184.037 15.2149 184.109 14.9267 184.183 14.6297C185.13 14.1773 185.976 14.1514 187.013 14.193Z" fill="#FCF7EF"/>
<path d="M198.116 19.4335C198.633 19.5018 198.633 19.5018 199.205 19.6519C199.348 19.8681 199.492 20.0842 199.64 20.307C199.856 20.379 200.071 20.4511 200.293 20.5253C200.32 20.7009 200.347 20.8766 200.375 21.0575C200.42 21.2422 200.465 21.4268 200.511 21.6171C200.655 21.6891 200.798 21.7612 200.946 21.8354C200.3 21.7273 200.3 21.7273 199.64 21.6171C199.64 21.473 199.64 21.3288 199.64 21.1804C199.425 21.1804 199.209 21.1804 198.987 21.1804C198.987 20.9642 198.987 20.748 198.987 20.5253C198.843 20.5253 198.7 20.5253 198.552 20.5253C198.552 20.3812 198.552 20.2371 198.552 20.0886C198.408 20.0886 198.264 20.0886 198.116 20.0886C198.116 19.8724 198.116 19.6563 198.116 19.4335Z" fill="#EFF4E9"/>
<path d="M224.023 13.9747C224.482 13.9688 224.94 13.9646 225.398 13.961C225.653 13.9585 225.908 13.956 226.171 13.9534C226.854 13.9747 226.854 13.9747 227.507 14.193C227.507 14.4092 227.507 14.6254 227.507 14.8481C224.923 14.9707 224.923 14.9707 224.023 14.193C224.023 14.121 224.023 14.0489 224.023 13.9747Z" fill="#F3F7EF"/>
<path d="M200.946 12.4462C201.808 12.4462 202.671 12.4462 203.559 12.4462C203.631 12.6624 203.702 12.8786 203.777 13.1013C203.201 13.39 202.758 13.3408 202.116 13.3333C201.898 13.3313 201.68 13.3294 201.455 13.3273C201.287 13.3248 201.119 13.3223 200.946 13.3196C200.946 13.0314 200.946 12.7432 200.946 12.4462Z" fill="#F7ECDA"/>
<path d="M193.762 17.0316C194.469 17.0126 195.177 17.001 195.884 16.9907C196.185 16.9825 196.185 16.9825 196.492 16.9741C196.685 16.972 196.879 16.9698 197.078 16.9677C197.256 16.9642 197.434 16.9608 197.617 16.9573C198.227 17.0483 198.527 17.2854 198.987 17.6867C198.708 17.7182 198.43 17.7498 198.143 17.7822C197.625 17.841 197.279 17.8881 196.81 18.1234C196.81 17.9793 196.81 17.8352 196.81 17.6867C196.549 17.6912 196.289 17.6957 196.02 17.7004C195.246 17.7017 194.522 17.621 193.762 17.4684C193.762 17.3242 193.762 17.1801 193.762 17.0316Z" fill="#E7C9C9"/>
<path d="M200.293 24.019C201.919 23.9537 203.478 24.2025 205.083 24.4557C205.083 24.5277 205.083 24.5998 205.083 24.674C202.712 24.7821 202.712 24.7821 200.293 24.8924C200.293 24.6042 200.293 24.3159 200.293 24.019Z" fill="#8CB8EC"/>
<path d="M219.451 19.8702C219.99 19.9783 219.99 19.9783 220.54 20.0886C220.54 20.2327 220.54 20.3768 220.54 20.5253C220.755 20.5253 220.971 20.5253 221.193 20.5253C221.193 20.6694 221.193 20.8135 221.193 20.962C221.337 20.962 221.48 20.962 221.628 20.962C221.628 21.1782 221.628 21.3944 221.628 21.6171C221.341 21.6171 221.054 21.6171 220.757 21.6171C220.757 21.473 220.757 21.3288 220.757 21.1804C220.398 21.1083 220.039 21.0363 219.669 20.962C219.597 20.6017 219.525 20.2414 219.451 19.8702Z" fill="#F6E0E5"/>
<path d="M223.588 15.9399C224.091 16.0119 224.594 16.084 225.112 16.1582C225.112 16.3023 225.112 16.4465 225.112 16.5949C226.118 16.5229 227.124 16.4508 228.16 16.3766C228.16 16.5207 228.16 16.6648 228.16 16.8133C226.112 16.9214 226.112 16.9214 224.023 17.0317C224.095 16.8155 224.167 16.5993 224.241 16.3766C224.025 16.3766 223.81 16.3766 223.588 16.3766C223.588 16.2325 223.588 16.0884 223.588 15.9399Z" fill="#C2CCBE"/>
<path d="M232.95 17.6867C233.237 17.6867 233.525 17.6867 233.821 17.6867C233.821 17.9749 233.821 18.2632 233.821 18.5601C233.533 18.6322 233.246 18.7042 232.95 18.7785C232.95 18.9226 232.95 19.0667 232.95 19.2152C232.519 19.2152 232.088 19.2152 231.644 19.2152C231.644 19.0711 231.644 18.927 231.644 18.7785C232.397 18.1234 232.397 18.1234 232.95 18.1234C232.95 17.9793 232.95 17.8352 232.95 17.6867Z" fill="#F9EFE0"/>
<path d="M206.607 16.3766C206.607 16.5928 206.607 16.809 206.607 17.0317C206.247 17.1037 205.888 17.1758 205.518 17.25C205.518 17.3941 205.518 17.5383 205.518 17.6867C205.087 17.6867 204.656 17.6867 204.212 17.6867C204.284 17.4706 204.356 17.2544 204.43 17.0317C204.645 17.0317 204.861 17.0317 205.083 17.0317C205.083 16.8876 205.083 16.7434 205.083 16.595C205.619 16.3261 206.014 16.361 206.607 16.3766Z" fill="#F6E2E6"/>
<path d="M222.935 19.4335C223.261 19.7065 223.261 19.7065 223.588 20.0886C223.588 20.3768 223.588 20.6651 223.588 20.962C223.803 21.0341 224.019 21.1061 224.241 21.1804C224.025 21.2524 223.81 21.3245 223.588 21.3987C223.321 22.0556 223.321 22.0556 223.152 22.7088C222.838 22.0791 222.914 21.526 222.921 20.8255C222.923 20.566 222.925 20.3065 222.927 20.0391C222.93 19.8393 222.932 19.6394 222.935 19.4335Z" fill="#EED7E3"/>
<path d="M207.26 21.1804C207.778 21.1164 207.778 21.1164 208.375 21.1395C208.574 21.1454 208.772 21.1513 208.976 21.1574C209.128 21.165 209.28 21.1726 209.437 21.1804C209.437 21.3966 209.437 21.6127 209.437 21.8355C208.575 21.8355 207.712 21.8355 206.824 21.8355C206.968 21.6193 207.112 21.4031 207.26 21.1804Z" fill="#F7E5E9"/>
<path d="M190.932 18.1234C190.716 18.2315 190.716 18.2315 190.496 18.3417C190.496 18.4859 190.496 18.63 190.496 18.7785C190.281 18.7785 190.065 18.7785 189.843 18.7785C189.843 18.9226 189.843 19.0667 189.843 19.2152C189.412 19.2872 188.981 19.3593 188.537 19.4335C188.537 19.2174 188.537 19.0012 188.537 18.7785C188.753 18.7785 188.968 18.7785 189.19 18.7785C189.19 18.6343 189.19 18.4902 189.19 18.3417C189.828 18.1286 190.269 18.1054 190.932 18.1234Z" fill="#EDE7F6"/>
<path d="M220.54 17.905C220.54 17.9771 220.54 18.0492 220.54 18.1234C220.385 18.1341 220.231 18.1448 220.071 18.1558C219.771 18.1803 219.771 18.1803 219.465 18.2053C219.265 18.2205 219.066 18.2357 218.86 18.2513C218.614 18.2961 218.614 18.2961 218.363 18.3418C218.291 18.4859 218.219 18.63 218.145 18.7785C218.145 18.5623 218.145 18.3461 218.145 18.1234C217.642 18.1234 217.139 18.1234 216.621 18.1234C216.621 17.9793 216.621 17.8352 216.621 17.6867C218.057 17.4684 219.15 17.4663 220.54 17.905Z" fill="#E9ECE0"/>
<path d="M234.691 21.1804C234.978 21.1804 235.266 21.1804 235.562 21.1804C235.562 21.3245 235.562 21.4686 235.562 21.6171C233.727 22.3657 233.727 22.3657 232.731 22.2721C232.947 21.9839 233.163 21.6957 233.385 21.3987C233.524 21.4392 233.663 21.4798 233.806 21.5215C233.955 21.5531 234.103 21.5846 234.255 21.6171C234.327 21.545 234.399 21.473 234.473 21.3987C234.545 21.3267 234.617 21.2546 234.691 21.1804Z" fill="#87B5EB"/>
<path d="M181.788 20.5253C183.105 20.6454 184.25 20.9411 185.489 21.3987C185.489 21.4708 185.489 21.5429 185.489 21.6171C182.981 21.447 182.981 21.447 181.788 20.962C181.788 20.8179 181.788 20.6738 181.788 20.5253Z" fill="#B8D3F4"/>
<path d="M228.596 19.4335C229.054 19.8065 229.235 19.9841 229.313 20.5825C229.305 20.7572 229.297 20.932 229.29 21.1121C229.284 21.2886 229.278 21.4651 229.272 21.6469C229.264 21.7812 229.257 21.9155 229.249 22.0538C229.464 22.1258 229.68 22.1979 229.902 22.2721C229.902 22.4163 229.902 22.5604 229.902 22.7088C229.471 22.7088 229.04 22.7088 228.596 22.7088C228.614 22.5639 228.632 22.4189 228.651 22.2696C228.825 20.8425 228.825 20.8425 228.596 19.4335Z" fill="#C7C8EC"/>
<path d="M219.452 14.6298C219.452 14.8459 219.452 15.0621 219.452 15.2848C219.092 15.3569 218.733 15.4289 218.363 15.5032C218.363 15.6473 218.363 15.7914 218.363 15.9399C218.004 15.9399 217.645 15.9399 217.274 15.9399C217.418 15.8678 217.562 15.7958 217.71 15.7215C217.71 15.5774 217.71 15.4333 217.71 15.2848C218.353 14.6857 218.532 14.6298 219.452 14.6298Z" fill="#EBF3E6"/>
<path d="M195.068 15.2848C195.787 15.2848 196.505 15.2848 197.245 15.2848C197.245 15.4289 197.245 15.573 197.245 15.7215C196.546 16.0724 195.844 15.9524 195.068 15.9399C195.068 15.7237 195.068 15.5075 195.068 15.2848Z" fill="#EBBAC5"/>
<path d="M205.083 11.7911C205.801 11.7911 206.52 11.7911 207.26 11.7911C207.26 12.2235 207.26 12.6558 207.26 13.1013C207.116 13.1013 206.973 13.1013 206.825 13.1013C206.825 12.813 206.825 12.5248 206.825 12.2278C206.25 12.2278 205.675 12.2278 205.083 12.2278C205.083 12.0837 205.083 11.9396 205.083 11.7911Z" fill="#C0D1EA"/>
<path d="M177.216 18.1234C177.431 18.4477 177.431 18.4477 177.651 18.7785C178.007 19.008 178.369 19.2283 178.74 19.4335C178.524 19.5416 178.524 19.5416 178.304 19.6519C178.304 19.796 178.304 19.9401 178.304 20.0886C177.945 20.0165 177.586 19.9445 177.216 19.8702C177.216 19.288 177.216 18.7057 177.216 18.1234Z" fill="#9FC3EF"/>
<path d="M235.562 20.5253C235.562 20.6694 235.562 20.8136 235.562 20.962C235.422 21.0251 235.283 21.0881 235.14 21.1531C234.658 21.3612 234.658 21.3612 234.473 21.8355C233.872 21.7213 233.314 21.5934 232.731 21.3987C233.008 21.294 233.285 21.1894 233.561 21.0849C233.716 21.0266 233.87 20.9683 234.028 20.9083C235.063 20.5253 235.063 20.5253 235.562 20.5253Z" fill="#A9CAF1"/>
<path d="M188.319 12.8829C188.822 12.955 189.325 13.027 189.843 13.1013C189.628 13.2454 189.412 13.3895 189.19 13.538C189.181 13.9746 189.181 14.4115 189.19 14.8481C189.046 14.9922 188.903 15.1364 188.755 15.2848C188.705 14.8513 188.656 14.4177 188.606 13.9841C188.543 13.4956 188.543 13.4956 188.319 12.8829Z" fill="#D5D6D0"/>
<path d="M236.215 20.0886C236.43 20.1607 236.646 20.2327 236.868 20.307C236.94 20.5231 237.011 20.7393 237.085 20.962C236.654 21.0341 236.223 21.1062 235.779 21.1804C235.707 20.9642 235.636 20.7481 235.562 20.5253C235.777 20.5253 235.993 20.5253 236.215 20.5253C236.215 20.3812 236.215 20.2371 236.215 20.0886Z" fill="#89B6EA"/>
<path d="M194.632 23.364C194.56 23.5801 194.489 23.7963 194.415 24.019C193.84 24.019 193.265 24.019 192.673 24.019C192.673 23.8749 192.673 23.7308 192.673 23.5823C194.142 23.364 194.142 23.364 194.632 23.364Z" fill="#8AB7EB"/>
<path d="M227.942 23.1456C228.014 23.2897 228.085 23.4338 228.159 23.5823C226.542 23.6446 226.542 23.6446 225.765 23.1456C226.577 22.8739 227.11 22.9756 227.942 23.1456Z" fill="#8FB8EC"/>
<path d="M190.496 22.7089C190.424 22.925 190.352 23.1412 190.278 23.3639C189.775 23.3639 189.272 23.3639 188.754 23.3639C188.754 23.2198 188.754 23.0757 188.754 22.9272C190.006 22.7089 190.006 22.7089 190.496 22.7089Z" fill="#88B5EB"/>
<path d="M187.23 22.2722C187.661 22.2722 188.093 22.2722 188.537 22.2722C188.465 22.4883 188.393 22.7045 188.319 22.9272C187.888 22.9272 187.457 22.9272 187.013 22.9272C187.085 22.711 187.156 22.4949 187.23 22.2722Z" fill="#85B3EB"/>
<path d="M230.99 17.0316C231.062 17.2478 231.134 17.464 231.208 17.6867C230.927 17.9871 230.636 18.2779 230.337 18.5601C230.193 18.5601 230.049 18.5601 229.901 18.5601C229.901 18.416 229.901 18.2719 229.901 18.1234C230.045 18.1234 230.189 18.1234 230.337 18.1234C230.364 17.9838 230.391 17.8442 230.418 17.7003C230.463 17.5517 230.508 17.4031 230.554 17.25C230.698 17.1779 230.842 17.1059 230.99 17.0316Z" fill="#EDD1A4"/>
</mask>
<g mask="url(#mask0_133_1430)">
<rect x="-22.8857" y="-25.7288" width="412.338" height="125.136" fill="#30455D"/>
</g>
</svg>
