<svg width="175" height="148" viewBox="0 0 175 148" fill="none" xmlns="http://www.w3.org/2000/svg">
<path d="M174.746 25.8714L71.1238 40.8661L57.2193 54.97L174.746 25.8714Z" fill="#243345"/>
<path opacity="0.6" d="M174.746 25.8714L71.1238 40.8661L57.2193 54.97L174.746 25.8714Z" fill="white"/>
<path d="M174.746 25.8714L71.1238 40.8661L75.9329 61.2612L174.746 25.8714Z" fill="#243345"/>
<path opacity="0.2" d="M174.746 25.8714L71.1238 40.8661L75.9329 61.2612L174.746 25.8714Z" fill="black"/>
<path d="M78.0595 2.25992L72.0459 30.5864C71.8895 31.326 72.0314 32.0979 72.4404 32.7326C72.8494 33.3672 73.4922 33.8129 74.2277 33.9718L127.9 45.4852C128.636 45.6412 129.403 45.498 130.034 45.0871C130.666 44.6762 131.109 44.0309 131.268 43.2922L137.287 14.9657C137.442 14.2255 137.299 13.4537 136.889 12.8192C136.479 12.1847 135.836 11.7392 135.1 11.5802L81.4277 0.0669025C80.6913 -0.0889561 79.9234 0.0547719 79.2922 0.466633C78.6609 0.878493 78.2177 1.52494 78.0595 2.26449V2.25992Z" fill="#243345"/>
<path opacity="0.4" d="M78.0595 2.25992L72.0459 30.5864C71.8895 31.326 72.0314 32.0979 72.4404 32.7326C72.8494 33.3672 73.4922 33.8129 74.2277 33.9718L127.9 45.4852C128.636 45.6412 129.403 45.498 130.034 45.0871C130.666 44.6762 131.109 44.0309 131.268 43.2922L137.287 14.9657C137.442 14.2255 137.299 13.4537 136.889 12.8192C136.479 12.1847 135.836 11.7392 135.1 11.5802L81.4277 0.0669025C80.6913 -0.0889561 79.9234 0.0547719 79.2922 0.466633C78.6609 0.878493 78.2177 1.52494 78.0595 2.26449V2.25992Z" fill="black"/>
<path d="M79.3823 0.405024L97.314 22.5316C98.977 24.5831 101.287 26.0024 103.862 26.5549C106.436 27.1074 109.122 26.7599 111.473 25.5699L136.832 12.7316C136.422 12.1392 135.803 11.726 135.1 11.5757L81.4277 0.0623653C80.7273 -0.087469 79.9964 0.0349672 79.3823 0.405024Z" fill="#243345"/>
<path d="M174.746 25.8714L89.2782 46.2893L75.9328 61.2612L174.746 25.8714Z" fill="#243345"/>
<path opacity="0.6" d="M174.746 25.8714L89.2782 46.2893L75.9328 61.2612L174.746 25.8714Z" fill="white"/>
<path d="M143.569 45.5515L143.799 45.9457L134.288 51.5456L134.058 51.1513L143.569 45.5515Z" fill="#243345"/>
<path d="M129.859 53.6202L130.089 54.0144L126.669 56.028L126.439 55.6338L129.859 53.6202Z" fill="#243345"/>
<path d="M174.746 25.8714L89.2782 46.2893L105.892 66.4148L174.746 25.8714Z" fill="#243345"/>
<path d="M60.429 73.7066C60.5442 73.7069 60.6583 73.6852 60.7654 73.6426L74.6835 68.1053C74.9062 68.0151 75.0844 67.8401 75.1791 67.6184C75.2739 67.3967 75.2775 67.1463 75.1893 66.9219C75.1011 66.6975 74.9281 66.5172 74.7082 66.4205C74.4882 66.3238 74.2392 66.3185 74.0153 66.4057L60.0927 71.943C59.8957 72.0213 59.7321 72.1662 59.6301 72.3528C59.5281 72.5393 59.4941 72.7558 59.534 72.9649C59.5739 73.1739 59.6851 73.3625 59.8485 73.4979C60.0119 73.6333 60.2173 73.7071 60.429 73.7066Z" fill="#243345"/>
<path opacity="0.3" d="M60.429 73.7066C60.5442 73.7069 60.6583 73.6852 60.7654 73.6426L74.6835 68.1053C74.9062 68.0151 75.0844 67.8401 75.1791 67.6184C75.2739 67.3967 75.2775 67.1463 75.1893 66.9219C75.1011 66.6975 74.9281 66.5172 74.7082 66.4205C74.4882 66.3238 74.2392 66.3185 74.0153 66.4057L60.0927 71.943C59.8957 72.0213 59.7321 72.1662 59.6301 72.3528C59.5281 72.5393 59.4941 72.7558 59.534 72.9649C59.5739 73.1739 59.6851 73.3625 59.8485 73.4979C60.0119 73.6333 60.2173 73.7071 60.429 73.7066Z" fill="black"/>
<path d="M61.25 65.6838C61.364 65.6831 61.4768 65.6598 61.5818 65.6153L69.0591 62.6227C69.1708 62.5792 69.273 62.5138 69.3595 62.4304C69.4461 62.3471 69.5154 62.2473 69.5634 62.1369C69.6115 62.0265 69.6373 61.9076 69.6395 61.7872C69.6417 61.6667 69.6201 61.5469 69.576 61.4349C69.532 61.3228 69.4663 61.2206 69.3828 61.1341C69.2992 61.0477 69.1996 60.9787 69.0894 60.9311C68.9792 60.8836 68.8608 60.8584 68.7409 60.857C68.621 60.8556 68.5021 60.8781 68.3909 60.9231L60.9136 63.902C60.6896 63.9906 60.5096 64.165 60.4133 64.3868C60.317 64.6087 60.3122 64.8599 60.4 65.0853C60.464 65.2603 60.5797 65.4114 60.7317 65.5184C60.8836 65.6254 61.0645 65.6831 61.25 65.6838Z" fill="#243345"/>
<path opacity="0.5" d="M61.25 65.6838C61.364 65.6831 61.4768 65.6598 61.5818 65.6153L69.0591 62.6227C69.1708 62.5792 69.273 62.5138 69.3595 62.4304C69.4461 62.3471 69.5154 62.2473 69.5634 62.1369C69.6115 62.0265 69.6373 61.9076 69.6395 61.7872C69.6417 61.6667 69.6201 61.5469 69.576 61.4349C69.532 61.3228 69.4663 61.2206 69.3828 61.1341C69.2992 61.0477 69.1996 60.9787 69.0894 60.9311C68.9792 60.8836 68.8608 60.8584 68.7409 60.857C68.621 60.8556 68.5021 60.8781 68.3909 60.9231L60.9136 63.902C60.6896 63.9906 60.5096 64.165 60.4133 64.3868C60.317 64.6087 60.3122 64.8599 60.4 65.0853C60.464 65.2603 60.5797 65.4114 60.7317 65.5184C60.8836 65.6254 61.0645 65.6831 61.25 65.6838Z" fill="white"/>
<path d="M76.8824 73.5878C76.996 73.5865 77.1083 73.5648 77.2143 73.5238L90.7915 68.1052C90.9033 68.0617 91.0054 67.9964 91.0919 67.913C91.1785 67.8296 91.2478 67.7299 91.2959 67.6195C91.3439 67.5091 91.3698 67.3902 91.3719 67.2697C91.3741 67.1492 91.3525 67.0295 91.3085 66.9174C91.2644 66.8053 91.1987 66.7031 91.1152 66.6167C91.0317 66.5302 90.932 66.4612 90.8218 66.4137C90.7117 66.3661 90.5932 66.3409 90.4734 66.3395C90.3535 66.3382 90.2345 66.3606 90.1233 66.4057L76.5461 71.806C76.3491 71.8842 76.1855 72.0291 76.0835 72.2157C75.9815 72.4022 75.9475 72.6187 75.9874 72.8278C76.0273 73.0369 76.1385 73.2254 76.3019 73.3608C76.4653 73.4962 76.6707 73.57 76.8824 73.5695V73.5878Z" fill="#243345"/>
<path opacity="0.3" d="M76.8824 73.5878C76.996 73.5865 77.1083 73.5648 77.2143 73.5238L90.7915 68.1052C90.9033 68.0617 91.0054 67.9964 91.0919 67.913C91.1785 67.8296 91.2478 67.7299 91.2959 67.6195C91.3439 67.5091 91.3698 67.3902 91.3719 67.2697C91.3741 67.1492 91.3525 67.0295 91.3085 66.9174C91.2644 66.8053 91.1987 66.7031 91.1152 66.6167C91.0317 66.5302 90.932 66.4612 90.8218 66.4137C90.7117 66.3661 90.5932 66.3409 90.4734 66.3395C90.3535 66.3382 90.2345 66.3606 90.1233 66.4057L76.5461 71.806C76.3491 71.8842 76.1855 72.0291 76.0835 72.2157C75.9815 72.4022 75.9475 72.6187 75.9874 72.8278C76.0273 73.0369 76.1385 73.2254 76.3019 73.3608C76.4653 73.4962 76.6707 73.57 76.8824 73.5695V73.5878Z" fill="black"/>
<path d="M27.7315 32.3865C26.527 34.7485 25.4224 37.1152 24.3725 39.5366C23.3225 41.9581 22.3452 44.4115 21.4906 46.9837L21.1816 47.9569C21.127 48.1305 21.0497 48.4138 21.0043 48.6148C20.9588 48.8158 20.9179 49.0443 20.8952 49.2361C20.7912 49.9732 20.738 50.7167 20.7361 51.4611C20.7293 52.8342 20.793 54.2066 20.927 55.573C21.1809 58.2182 21.5937 60.8455 22.1634 63.4405L24.6588 63.1618C24.6906 60.5896 24.7134 57.9899 24.8043 55.4543C24.8452 54.1933 24.9179 52.9277 25.0452 51.7398C25.1028 51.182 25.1939 50.6282 25.3179 50.0814C25.3406 49.9534 25.377 49.8575 25.4043 49.7524C25.4315 49.6473 25.4588 49.6108 25.5043 49.4737L25.8497 48.6102C26.7997 46.2984 27.8679 43.9683 28.9588 41.6474L32.2588 34.6846L27.7315 32.3865Z" fill="#E4897B"/>
<path d="M24.6205 62.3577L25.7842 64.5461L22.066 65.5878C22.066 65.5878 21.3569 63.8288 22.2024 62.4399L24.6205 62.3577Z" fill="#E4897B"/>
<path d="M27.207 67.6986L23.7889 67.9727L22.0661 65.5878L25.7843 64.5461L27.207 67.6986Z" fill="#E4897B"/>
<path d="M43.3795 16.5968C43.4295 16.8663 43.6159 17.0536 43.7886 17.0171C43.9613 16.9805 44.0568 16.7384 44.0022 16.4734C43.9477 16.2084 43.7659 16.0165 43.5931 16.0531C43.4204 16.0896 43.3204 16.3318 43.3795 16.5968Z" fill="#263238"/>
<path d="M43.5898 17.0536C44.0699 17.8011 44.6495 18.479 45.3125 19.0685C45.1577 19.234 44.9691 19.3638 44.7595 19.449C44.55 19.5342 44.3246 19.5727 44.0989 19.5619L43.5898 17.0536Z" fill="#DE5753"/>
<path d="M42.1168 15.3221C42.1598 15.321 42.2006 15.3029 42.2305 15.2718C42.3611 15.1217 42.525 15.0046 42.709 14.93C42.893 14.8554 43.0919 14.8253 43.2895 14.8423C43.3272 14.8427 43.3638 14.8296 43.3928 14.8055C43.4217 14.7813 43.4412 14.7475 43.4478 14.7102C43.4543 14.673 43.4475 14.6345 43.4285 14.6018C43.4095 14.5692 43.3796 14.5443 43.3441 14.5317C43.0913 14.4995 42.8346 14.5306 42.5966 14.6223C42.3587 14.7139 42.147 14.8633 41.9805 15.0571C41.9513 15.087 41.935 15.1272 41.935 15.169C41.935 15.2109 41.9513 15.2511 41.9805 15.281C41.9986 15.2977 42.0203 15.3101 42.044 15.3172C42.0676 15.3243 42.0925 15.326 42.1168 15.3221Z" fill="#263238"/>
<path d="M35.8623 20.3294C36.3396 22.7874 36.8169 27.2831 35.1078 28.9233C35.1078 28.9233 35.776 31.4133 40.3169 31.4133C45.3168 31.4133 42.6987 28.9233 42.6987 28.9233C39.9714 28.27 40.0487 26.2369 40.5214 24.3317L35.8623 20.3294Z" fill="#E4897B"/>
<path d="M34.4217 30.4722C34.0627 29.2706 33.6672 27.8954 34.4854 27.4613C35.3945 27.0044 40.3353 26.5019 42.0399 27.3928C43.7444 28.2837 43.2581 30.728 43.2581 30.728L34.4217 30.4722Z" fill="#263238"/>
<path d="M23.9409 144.404C24.082 144.423 24.2255 144.413 24.3629 144.375C24.5003 144.338 24.6288 144.273 24.7409 144.185C24.7805 144.129 24.8018 144.063 24.8018 143.995C24.8018 143.927 24.7805 143.861 24.7409 143.805C24.7149 143.758 24.6792 143.717 24.636 143.685C24.5929 143.652 24.5434 143.63 24.4909 143.618C24 143.508 23.0818 144.139 23.0409 144.166C23.0291 144.176 23.02 144.189 23.0145 144.203C23.0089 144.218 23.007 144.233 23.0091 144.249C23.0117 144.263 23.0187 144.277 23.0293 144.288C23.0399 144.298 23.0534 144.305 23.0682 144.308C23.355 144.37 23.6475 144.402 23.9409 144.404ZM24.3591 143.764H24.4545C24.4853 143.771 24.5143 143.784 24.5394 143.803C24.5646 143.822 24.5853 143.846 24.6 143.874C24.6727 144.002 24.6273 144.057 24.6 144.075C24.4591 144.267 23.7773 144.267 23.2773 144.185C23.603 143.968 23.9726 143.828 24.3591 143.773V143.764Z" fill="#243345"/>
<path d="M23.0856 144.322H23.122C23.4674 144.13 24.1356 143.408 24.0674 143.024C24.0558 142.965 24.0241 142.911 23.9776 142.873C23.9312 142.835 23.873 142.814 23.8129 142.814C23.753 142.807 23.6924 142.813 23.6347 142.83C23.5769 142.848 23.5231 142.876 23.4765 142.914C23.0901 143.234 23.022 144.203 23.022 144.244C23.0201 144.258 23.0226 144.273 23.029 144.286C23.0355 144.299 23.0457 144.31 23.0583 144.317C23.067 144.321 23.0763 144.322 23.0856 144.322ZM23.7583 142.951H23.7765C23.8811 142.951 23.8901 143.015 23.8947 143.033C23.9356 143.257 23.5083 143.81 23.1674 144.07C23.1904 143.689 23.3265 143.323 23.5583 143.02C23.5889 142.996 23.624 142.978 23.6614 142.968C23.6989 142.957 23.738 142.955 23.7765 142.96L23.7583 142.951Z" fill="#243345"/>
<path d="M43.9898 144.404C44.4171 144.404 44.8307 144.345 44.9717 144.153C45.0073 144.102 45.0264 144.041 45.0264 143.979C45.0264 143.917 45.0073 143.856 44.9717 143.805C44.9441 143.758 44.9073 143.718 44.8635 143.685C44.8198 143.653 44.77 143.63 44.7171 143.618C44.1671 143.467 42.9944 144.134 42.9444 144.162C42.931 144.17 42.9205 144.183 42.914 144.197C42.9076 144.212 42.9055 144.228 42.908 144.244C42.9107 144.26 42.9182 144.275 42.9296 144.286C42.941 144.298 42.9557 144.305 42.9717 144.308C43.3074 144.372 43.6482 144.404 43.9898 144.404ZM44.5217 143.755C44.5714 143.748 44.6219 143.748 44.6717 143.755C44.7036 143.761 44.7339 143.775 44.7606 143.793C44.7872 143.812 44.8096 143.837 44.8262 143.865C44.8853 143.965 44.8626 144.011 44.8262 144.038C44.6762 144.249 43.8307 144.262 43.2035 144.175C43.6121 143.954 44.0599 143.814 44.5217 143.764V143.755Z" fill="#243345"/>
<path d="M42.9814 144.322H43.0132C43.4178 144.143 44.2132 143.408 44.1541 143.038C44.1541 142.946 44.0768 142.837 43.8587 142.814C43.7775 142.802 43.6947 142.807 43.6161 142.831C43.5375 142.855 43.4651 142.896 43.4041 142.951C42.9768 143.298 42.8905 144.203 42.8859 144.244C42.8842 144.258 42.8862 144.272 42.8918 144.285C42.8974 144.298 42.9064 144.309 42.9177 144.317C42.9274 144.322 42.9381 144.325 42.9491 144.326C42.9601 144.327 42.9711 144.325 42.9814 144.322ZM43.795 142.951H43.845C43.9859 142.951 43.995 143.024 43.9996 143.042C44.0359 143.271 43.4905 143.842 43.0905 144.089C43.1298 143.705 43.2889 143.343 43.545 143.056C43.6099 143 43.6913 142.966 43.7768 142.96L43.795 142.951Z" fill="#243345"/>
<path d="M39.3087 144.239H42.6496L42.9814 136.468H39.6405L39.3087 144.239Z" fill="#E4897B"/>
<path d="M19.2572 144.239H22.5981L24.2754 136.468H20.939L19.2572 144.239Z" fill="#E4897B"/>
<path d="M22.8363 143.851H19.0863C19.0194 143.852 18.9546 143.875 18.9026 143.917C18.8506 143.96 18.8144 144.018 18.8 144.084L18.1409 147.067C18.1258 147.14 18.1273 147.215 18.1451 147.287C18.163 147.359 18.1967 147.426 18.2439 147.483C18.2911 147.541 18.3504 147.586 18.4176 147.617C18.4848 147.648 18.558 147.663 18.6318 147.661C19.9409 147.639 20.5773 147.561 22.2272 147.561C23.2409 147.561 25.3318 147.671 26.7363 147.671C28.1409 147.671 28.3181 146.3 27.7454 146.149C25.1727 145.583 24.2045 144.801 23.3818 144.061C23.2324 143.925 23.0378 143.85 22.8363 143.851Z" fill="#263238"/>
<path d="M42.628 143.851H38.9916C38.9247 143.852 38.8599 143.875 38.8079 143.917C38.7559 143.96 38.7197 144.018 38.7053 144.084L38.0462 147.067C38.0304 147.139 38.031 147.214 38.048 147.286C38.065 147.358 38.0979 147.424 38.1442 147.482C38.1905 147.539 38.2491 147.585 38.3156 147.616C38.3821 147.647 38.4547 147.662 38.528 147.661C39.8416 147.639 41.7416 147.561 43.3962 147.561C45.328 147.561 47.0007 147.671 49.2688 147.671C50.6325 147.671 51.0189 146.3 50.4461 146.149C47.8325 145.574 45.7007 145.514 43.4416 144.116C43.201 143.952 42.9188 143.86 42.628 143.851Z" fill="#263238"/>
<path d="M44.2315 34.8171C47.0237 34.5996 49.8021 34.229 52.5542 33.7068C53.9178 33.4419 55.3087 33.1449 56.6905 32.7702C58.1069 32.4059 59.4978 31.948 60.8541 31.3996C61.2041 31.2534 61.5587 31.0935 61.9087 30.9427C62.3027 30.7476 62.6824 30.5247 63.045 30.2757C63.6996 29.8417 64.2632 29.3893 64.8223 28.9416C65.9359 28.0278 66.9677 27.1141 68.0041 26.1775C70.0359 24.286 71.9632 22.3306 73.8223 20.2746L72.1495 18.3969L65.5541 23.1621C64.4678 23.9479 63.3678 24.72 62.2859 25.4465C61.7496 25.8074 61.1996 26.1455 60.695 26.4333C60.4841 26.5543 60.2654 26.6611 60.0405 26.7532C59.7723 26.8582 59.4996 26.9633 59.2132 27.0638C56.7566 27.8242 54.2443 28.3894 51.6996 28.7543C49.1042 29.1655 46.4224 29.5036 43.8315 29.7777L44.2315 34.8171Z" fill="#E4897B"/>
<path d="M29.1317 29.6817C25.9999 30.4036 22.8362 39.6006 22.8362 39.6006L29.2771 44.247C29.2771 44.247 31.0953 39.9615 32.8498 36.2151C34.6862 32.2905 32.3317 28.9462 29.1317 29.6817Z" fill="#243345"/>
<path opacity="0.4" d="M29.1317 29.6817C25.9999 30.4036 22.8362 39.6006 22.8362 39.6006L29.2771 44.247C29.2771 44.247 31.0953 39.9615 32.8498 36.2151C34.6862 32.2905 32.3317 28.9462 29.1317 29.6817Z" fill="black"/>
<path d="M30.9356 34.7074L32.2129 37.5812C30.8902 40.4504 29.6811 43.2922 29.3584 44.0506C29.4038 40.656 30.0447 36.4436 30.9356 34.7074Z" fill="#243345"/>
<path opacity="0.6" d="M30.9356 34.7074L32.2129 37.5812C30.8902 40.4504 29.6811 43.2922 29.3584 44.0506C29.4038 40.656 30.0447 36.4436 30.9356 34.7074Z" fill="black"/>
<path d="M47.8368 29.8554C47.8368 29.8554 51.3913 33.8896 48.0368 58.8672H30.1778C30.0505 56.1259 31.7732 42.6663 29.1323 29.6818C31.1064 29.2997 33.103 29.0464 35.1096 28.9234C37.6378 28.7771 40.1722 28.7771 42.7004 28.9234C44.4341 29.0989 46.1515 29.4106 47.8368 29.8554Z" fill="#243345"/>
<path opacity="0.4" d="M47.8368 29.8554C47.8368 29.8554 51.3913 33.8896 48.0368 58.8672H30.1778C30.0505 56.1259 31.7732 42.6663 29.1323 29.6818C31.1064 29.2997 33.103 29.0464 35.1096 28.9234C37.6378 28.7771 40.1722 28.7771 42.7004 28.9234C44.4341 29.0989 46.1515 29.4106 47.8368 29.8554Z" fill="black"/>
<path d="M49.1566 34.7074C49.2748 35.6532 49.3657 36.7725 49.4248 38.0929C47.6611 37.5608 45.9854 36.7695 44.4521 35.7445L49.1566 34.7074Z" fill="#243345"/>
<path opacity="0.6" d="M49.1566 34.7074C49.2748 35.6532 49.3657 36.7725 49.4248 38.0929C47.6611 37.5608 45.9854 36.7695 44.4521 35.7445L49.1566 34.7074Z" fill="black"/>
<path d="M41.5032 35.21C43.8941 37.339 53.0213 37.1243 53.0213 37.1243L53.3213 28.2426C50.2391 28.6839 47.1301 28.9098 44.0168 28.9188C38.9304 28.8137 38.8941 32.8616 41.5032 35.21Z" fill="#243345"/>
<path opacity="0.4" d="M41.5032 35.21C43.8941 37.339 53.0213 37.1243 53.0213 37.1243L53.3213 28.2426C50.2391 28.6839 47.1301 28.9098 44.0168 28.9188C38.9304 28.8137 38.8941 32.8616 41.5032 35.21Z" fill="black"/>
<path d="M72.0625 18.4152L74.3352 15.7242L76.7852 18.4654C76.7852 18.4654 75.2761 21.0148 72.8806 20.6127L72.0625 18.4152Z" fill="#E4897B"/>
<path d="M77.5899 12.5854L78.4717 16.0988L76.8035 18.4471L74.3535 15.7241L77.5899 12.5854Z" fill="#E4897B"/>
<path d="M42.9814 136.472L42.8087 140.475H39.4678L39.6405 136.472H42.9814Z" fill="#CE6F64"/>
<path d="M20.9345 136.472H24.2754L23.4118 140.475H20.0709L20.9345 136.472Z" fill="#CE6F64"/>
<path d="M40.9723 13.2798C43.9678 11.9092 44.9132 5.81901 36.2951 7.34041C36.2951 7.34041 37.5951 8.78415 34.9587 9.69791C32.3224 10.6117 34.5269 16.2541 40.9723 13.2798Z" fill="#263238"/>
<path d="M34.4621 17.8486C35.3211 21.0468 35.6575 22.9931 37.6439 24.3317C40.6166 26.342 44.312 24.0347 44.4302 20.6219C44.5347 17.5562 43.112 12.8092 39.6802 12.1605C38.9227 12.0112 38.1398 12.0595 37.4062 12.3007C36.6725 12.5419 36.0126 12.9681 35.4893 13.5385C34.966 14.1089 34.5969 14.8045 34.417 15.559C34.2372 16.3136 34.2527 17.1018 34.4621 17.8486Z" fill="#E4897B"/>
<path d="M36.4138 8.9395C34.3729 10.0817 31.6093 10.767 31.8684 12.3935C32.2093 14.3809 30.2002 13.1382 30.6684 16.0942C30.973 18.0268 34.5184 23.884 37.032 23.6007C40.7866 23.1438 40.3093 17.4055 40.3229 14.3809C40.332 12.5945 40.4138 6.68709 36.4138 8.9395Z" fill="#263238"/>
<path d="M40.7722 11.5026C41.6813 11.7173 42.8858 16.9851 39.3631 17.4694C35.3131 18.0222 40.7722 11.5026 40.7722 11.5026Z" fill="#263238"/>
<path d="M40.6799 13.3712C41.7935 13.4717 44.3163 12.1239 44.0072 10.0954C44.0072 10.0817 42.4117 12.4666 40.6799 13.3712Z" fill="#263238"/>
<path d="M39.0269 17.8897C39.3687 18.643 39.9489 19.2615 40.6769 19.6487C41.636 20.1513 42.1769 19.4203 41.9587 18.4517C41.7633 17.5836 41.0269 16.2724 40.0406 16.1673C39.0542 16.0622 38.6315 16.976 39.0269 17.8897Z" fill="#E4897B"/>
<path d="M34.0254 14.1936C33.3461 13.8973 32.7505 13.4363 32.292 12.8518C31.8335 12.2674 31.5264 11.5777 31.3981 10.8447C31.3981 10.8447 29.8981 15.0342 34.0254 14.1936Z" fill="#263238"/>
<path d="M30.2365 14.1251C30.5527 13.9115 30.9167 13.7801 31.2959 13.7427C31.6751 13.7052 32.0576 13.7628 32.4092 13.9103C32.4092 13.9103 31.0092 12.0874 30.2365 14.1251Z" fill="#263238"/>
<path d="M41.7002 58.8671C41.7002 58.8671 37.9093 84.5163 35.832 94.1245C33.5593 104.633 24.9684 139.703 24.9684 139.703H18.8548C18.8548 139.703 24.5139 105.496 25.8139 95.061C27.223 83.7533 30.1775 58.8489 30.1775 58.8489L41.7002 58.8671Z" fill="#243345"/>
<path opacity="0.5" d="M41.7002 58.8671C41.7002 58.8671 37.9093 84.5163 35.832 94.1245C33.5593 104.633 24.9684 139.703 24.9684 139.703H18.8548C18.8548 139.703 24.5139 105.496 25.8139 95.061C27.223 83.7533 30.1775 58.8489 30.1775 58.8489L41.7002 58.8671Z" fill="white"/>
<path d="M25.9455 137.437C25.9727 137.437 25.3137 139.799 25.3137 139.799H18.4319L18.5591 137.692L25.9455 137.437Z" fill="#243345"/>
<path opacity="0.1" d="M25.9455 137.437C25.9727 137.437 25.3137 139.799 25.3137 139.799H18.4319L18.5591 137.692L25.9455 137.437Z" fill="black"/>
<path d="M39.3027 68.0047C34.9209 68.8682 35.3845 85.293 35.9118 93.7406C37.1754 87.7692 39.0254 76.2788 40.2891 68.1235C39.9833 67.9721 39.6354 67.9302 39.3027 68.0047Z" fill="#243345"/>
<path opacity="0.4" d="M39.3027 68.0047C34.9209 68.8682 35.3845 85.293 35.9118 93.7406C37.1754 87.7692 39.0254 76.2788 40.2891 68.1235C39.9833 67.9721 39.6354 67.9302 39.3027 68.0047Z" fill="white"/>
<path d="M48.034 58.8671C48.034 58.8671 48.4885 83.9589 48.1295 94.1975C47.7522 104.843 44.0386 139.703 44.0386 139.703H38.3841C38.3841 139.703 38.175 105.464 37.9295 95.0108C37.6522 83.6117 36.284 58.8671 36.284 58.8671H48.034Z" fill="#243345"/>
<path opacity="0.5" d="M48.034 58.8671C48.034 58.8671 48.4885 83.9589 48.1295 94.1975C47.7522 104.843 44.0386 139.703 44.0386 139.703H38.3841C38.3841 139.703 38.175 105.464 37.9295 95.0108C37.6522 83.6117 36.284 58.8671 36.284 58.8671H48.034Z" fill="white"/>
<path d="M42.8673 135.618C42.881 135.618 42.8942 135.613 42.9044 135.604C42.9145 135.594 42.9207 135.582 42.9218 135.568C43.9218 125.919 46.2718 102.572 46.5582 94.1975C46.8627 85.6493 46.5855 66.4696 46.4946 60.7952C46.4946 60.7806 46.4888 60.7667 46.4786 60.7564C46.4684 60.7461 46.4545 60.7404 46.44 60.7404C46.4251 60.7403 46.4107 60.7459 46.3998 60.7561C46.3888 60.7663 46.3821 60.7802 46.3809 60.7952C46.4718 66.4696 46.7491 85.6494 46.4446 94.193C46.1491 102.568 43.7991 125.905 42.8082 135.554C42.8081 135.57 42.8135 135.585 42.8235 135.596C42.8336 135.608 42.8475 135.616 42.8628 135.618H42.8673Z" fill="#243345"/>
<path opacity="0.4" d="M42.8673 135.618C42.881 135.618 42.8942 135.613 42.9044 135.604C42.9145 135.594 42.9207 135.582 42.9218 135.568C43.9218 125.919 46.2718 102.572 46.5582 94.1975C46.8627 85.6493 46.5855 66.4696 46.4946 60.7952C46.4946 60.7806 46.4888 60.7667 46.4786 60.7564C46.4684 60.7461 46.4545 60.7404 46.44 60.7404C46.4251 60.7403 46.4107 60.7459 46.3998 60.7561C46.3888 60.7663 46.3821 60.7802 46.3809 60.7952C46.4718 66.4696 46.7491 85.6494 46.4446 94.193C46.1491 102.568 43.7991 125.905 42.8082 135.554C42.8081 135.57 42.8135 135.585 42.8235 135.596C42.8336 135.608 42.8475 135.616 42.8628 135.618H42.8673Z" fill="white"/>
<path d="M45.1386 137.437C45.1613 137.437 44.8159 139.799 44.8159 139.799H37.9386L37.7522 137.692L45.1386 137.437Z" fill="#243345"/>
<path opacity="0.1" d="M45.1386 137.437C45.1613 137.437 44.8159 139.799 44.8159 139.799H37.9386L37.7522 137.692L45.1386 137.437Z" fill="black"/>
</svg>
